<?xml version="1.0" encoding="iso-8859-1"?>
<!-- Generator: Adobe Illustrator 19.0.0, SVG Export Plug-In . SVG Version: 6.00 Build 0)  -->
<svg version="1.1" id="Layer_1" xmlns="http://www.w3.org/2000/svg" xmlns:xlink="http://www.w3.org/1999/xlink" x="0px" y="0px"
	 viewBox="0 0 512 512" style="enable-background:new 0 0 512 512;" xml:space="preserve">
<g>
	<g>
		<path d="M481.806,286.348l29.618-85.491c1.108-3.197,0.6-6.471-1.363-9.227c-1.962-2.757-5.136-4.132-8.519-4.132H397.186V135.73
			c0-5.776-4.455-9.935-10.231-9.935H125.499c-5.776,0-10.685,4.159-10.685,9.935v51.768H10.519c-3.382,0-6.556,1.374-8.518,4.13
			c-1.962,2.755-2.471,6.159-1.366,9.355l29.558,85.392l-29.617,85.46c-1.107,3.197-0.6,6.977,1.363,9.734
			c1.962,2.757,5.136,4.638,8.519,4.638h115.041c5.776,0,10.231-5.205,10.231-10.981v-50.722h240.54v50.722
			c0,5.776,4.909,10.981,10.685,10.981H501.48c3.382,0,6.556-1.897,8.518-4.653c1.962-2.755,2.471-6.42,1.366-9.616L481.806,286.348
			z M25.149,365.289l25.993-75.292c0.768-2.216,0.768-4.495,0.001-6.711l-25.942-74.871h89.611v156.874H25.149z M156.647,303.586
			H135.73V197.434v-50.722h20.917V303.586z M334.437,303.586H177.563V146.712h156.874V303.586z M376.27,197.434v106.151h-20.916
			V146.712h20.916V197.434z M397.186,365.289V208.416h89.664l-25.993,74.769c-0.768,2.216-0.768,4.756-0.001,6.972l25.942,75.132
			H397.186z"/>
	</g>
</g>
<g>
</g>
<g>
</g>
<g>
</g>
<g>
</g>
<g>
</g>
<g>
</g>
<g>
</g>
<g>
</g>
<g>
</g>
<g>
</g>
<g>
</g>
<g>
</g>
<g>
</g>
<g>
</g>
<g>
</g>
</svg>
