<svg width="482" height="349" viewBox="0 0 482 349" fill="none" xmlns="http://www.w3.org/2000/svg">
<path fill-rule="evenodd" clip-rule="evenodd" d="M309.438 24.8941C309.675 23.777 309.944 22.6639 310.246 21.556L311.276 21.5838C310.893 22.9621 310.563 24.3485 310.285 25.7409L309.438 24.8941ZM297.32 64.2485C298.292 66.1057 299.369 67.9332 300.55 69.7248C302.236 72.2821 303.712 74.9117 304.98 77.5958L304.228 78.3477C302.947 75.5932 301.443 72.8958 299.715 70.2752C297.954 67.6043 296.422 64.8544 295.117 62.046L297.32 64.2485ZM10.0977 136.643C10.2929 136.336 10.4911 136.03 10.6923 135.725C10.8875 135.429 11.0799 135.131 11.2695 134.833L11.9936 135.557C11.84 135.797 11.6845 136.037 11.5272 136.275C11.05 136.999 10.5899 137.729 10.1469 138.464L10.0977 136.643ZM13.5132 263.017C23.6253 244.345 23.0956 222.565 11.924 204.218L11.8709 202.252C24.411 221.678 24.9761 245.179 13.566 264.972L13.5132 263.017ZM14.0277 282.057L13.9551 279.368C15.5268 275.369 17.547 271.469 20.0155 267.725C33.3855 247.443 33.3855 222.557 20.0156 202.275C15.8317 195.929 12.9359 189.136 11.3282 182.172L11.133 174.95C12.1017 184.227 15.3409 193.367 20.8505 201.725C34.4405 222.34 34.4405 247.66 20.8504 268.275C17.9447 272.683 15.6705 277.308 14.0277 282.057ZM19.2112 303.748C18.6258 291.356 22.0017 278.855 29.3389 267.725C42.7088 247.443 42.7088 222.557 29.3389 202.275C18.1398 185.287 16.1695 165.104 23.4278 146.992L24.1981 147.762C17.2475 165.471 19.2394 185.138 30.1738 201.725C43.7639 222.34 43.7639 247.66 30.1738 268.275C22.9411 279.247 19.621 291.566 20.2136 303.775L19.2112 303.748ZM28.547 304C27.9035 291.526 31.2752 278.93 38.6622 267.725C52.0322 247.443 52.0322 222.557 38.6622 202.275C28.8877 187.448 26.1434 170.187 30.4293 153.993L31.2496 154.813C27.2465 170.573 29.9956 187.312 39.4971 201.725C53.0872 222.34 53.0872 247.66 39.4971 268.275C32.2145 279.322 28.8988 291.736 29.5498 304.027L28.547 304ZM37.8839 304.253C37.1815 291.696 40.5487 279.006 47.9855 267.725C61.3555 247.443 61.3555 222.557 47.9855 202.275C39.7689 189.811 36.5201 175.627 38.2391 161.803L39.1402 162.704C37.6648 176.05 40.8916 189.697 48.8205 201.725C62.4105 222.34 62.4105 247.66 48.8205 268.275C41.488 279.398 38.1769 291.906 38.887 304.28L37.8839 304.253ZM47.2218 304.505C46.4598 291.866 49.8222 279.082 57.3088 267.725C70.6788 247.443 70.6788 222.557 57.3088 202.275C50.8501 192.478 47.4609 181.618 47.1412 170.705L48.1821 171.746C48.6802 182.116 52.0007 192.406 58.1437 201.725C71.7338 222.34 71.7338 247.66 58.1437 268.275C50.7614 279.474 47.4553 292.076 48.2253 304.532L47.2218 304.505ZM56.5609 304.758C55.7386 292.036 59.0957 279.157 66.6321 267.725C80.0021 247.443 80.0021 222.557 66.6321 202.275C62.2774 195.669 59.318 188.58 57.7541 181.318L59.0859 182.65C60.697 189.254 63.4907 195.693 67.467 201.725C81.0571 222.34 81.0571 247.66 67.467 268.275C60.0349 279.549 56.7341 292.246 57.5648 304.785L56.5609 304.758ZM65.9011 305.01C65.0177 292.207 68.3691 279.233 75.9555 267.725C89.3254 247.443 89.3254 222.557 75.9555 202.275C72.4806 197.004 69.8943 191.426 68.1964 185.697L69.003 184.89C70.6693 190.709 73.265 196.377 76.7904 201.725C90.3805 222.34 90.3804 247.66 76.7904 268.275C69.3083 279.625 66.0134 292.417 66.9055 305.037L65.9011 305.01ZM75.2424 305.262C74.2971 292.377 77.6426 279.308 85.2788 267.725C98.6488 247.443 98.6488 222.557 85.2788 202.275C80.2816 194.695 77.1219 186.478 75.7997 178.093L76.6782 177.215C77.9079 185.712 81.053 194.048 86.1137 201.725C99.7038 222.34 99.7038 247.66 86.1137 268.275C78.5817 279.701 75.2929 292.588 76.2472 305.29L75.2424 305.262ZM84.5847 305.515C83.5769 292.548 86.916 279.384 94.602 267.725C107.972 247.443 107.972 222.557 94.602 202.275C87.902 192.112 84.5051 180.805 84.4115 169.481L85.4118 168.481C85.3079 179.946 88.6496 191.429 95.437 201.725C109.027 222.34 109.027 247.66 95.437 268.275C87.8551 279.776 84.5728 292.759 85.59 305.542L84.5847 305.515ZM93.9283 305.767C92.8571 292.719 96.1894 279.46 103.925 267.725C117.295 247.443 117.295 222.557 103.925 202.275C95.2234 189.075 92.0934 173.945 94.5356 159.357L95.7749 158.118C92.9252 172.892 95.9203 188.315 104.76 201.725C118.35 222.34 118.35 247.66 104.76 268.275C97.1285 279.852 93.8531 292.93 94.934 305.795L93.9283 305.767ZM103.273 306.02C102.138 292.89 105.463 279.535 113.249 267.725C126.619 247.443 126.619 222.557 113.249 202.275C101.897 185.056 100.027 164.555 107.639 146.254L109.593 144.3C100.934 162.875 102.431 184.049 114.084 201.725C127.674 222.34 127.674 247.66 114.084 268.275C106.402 279.928 103.134 293.101 104.279 306.047L103.273 306.02ZM113.625 306.3L112.619 306.273C111.418 293.062 114.736 279.611 122.572 267.725C125.628 263.09 127.985 258.214 129.644 253.208L130.433 253.997C128.757 258.919 126.415 263.712 123.407 268.275C115.675 280.004 112.415 293.272 113.625 306.3ZM122.973 306.552L121.965 306.525C120.7 293.233 124.01 279.687 131.895 267.725C133.577 265.173 135.048 262.549 136.306 259.87L137.057 260.621C135.813 263.23 134.371 265.787 132.73 268.275C124.949 280.08 121.696 293.444 122.973 306.552ZM132.321 306.805L131.313 306.778C129.981 293.405 133.283 279.763 141.219 267.725C141.611 267.129 141.993 266.529 142.362 265.926L143.089 266.653C142.753 267.197 142.408 267.738 142.054 268.275C134.222 280.155 130.978 293.616 132.321 306.805ZM141.671 307.058L140.662 307.031C139.414 295.025 141.902 282.793 148.126 271.69L148.862 272.425C142.818 283.32 140.421 295.301 141.671 307.058ZM151.021 307.31L150.013 307.283C148.942 297.413 150.4 287.383 154.384 277.948L155.148 278.712C151.332 287.923 149.956 297.695 151.021 307.31ZM160.373 307.563L159.364 307.536C158.508 299.954 159.145 292.274 161.274 284.838L162.085 285.649C160.1 292.837 159.53 300.247 160.373 307.563ZM169.726 307.816L168.716 307.789C168.12 302.706 168.195 297.577 168.942 292.505L169.827 293.391C169.185 298.182 169.152 303.02 169.726 307.816ZM179.081 308.069L178.07 308.042C177.793 305.77 177.651 303.488 177.643 301.207L178.656 302.219C178.697 304.172 178.839 306.124 179.081 308.069ZM197.284 269.375L196.56 268.65C196.756 268.341 196.956 268.032 197.159 267.725C204.692 256.297 207.981 243.406 207.024 230.701L207.951 229.774C209.139 242.97 205.82 256.403 197.993 268.275C197.753 268.64 197.516 269.007 197.284 269.375ZM203.272 275.363L202.525 274.616C203.683 272.271 205.002 269.97 206.482 267.725C215.63 253.848 218.518 237.816 215.148 222.577L215.984 221.741C219.629 237.423 216.74 253.98 207.317 268.275C205.796 270.583 204.447 272.95 203.272 275.363ZM209.856 281.946L209.072 281.162C210.724 276.535 212.969 272.028 215.805 267.725C226.414 251.632 228.605 232.639 222.378 215.348L223.158 214.568C229.688 232.269 227.515 251.778 216.64 268.275C213.757 272.649 211.495 277.237 209.856 281.946ZM217.153 289.244L216.311 288.402C217.891 281.238 220.83 274.246 225.128 267.725C237.091 249.578 238.35 227.743 228.905 208.82L229.65 208.075C239.416 227.383 238.187 249.732 225.963 268.275C221.608 274.882 218.671 281.978 217.153 289.244ZM225.369 297.46L224.432 296.522C225.2 286.549 228.54 276.692 234.452 267.725C247.689 247.645 247.82 223.05 234.846 202.88L235.569 202.157C248.876 222.693 248.782 247.804 235.287 268.275C229.301 277.356 225.995 287.359 225.369 297.46ZM234.896 306.987L233.787 305.878C232.688 292.794 236.017 279.493 243.775 267.725C257.145 247.443 257.145 222.557 243.775 202.275C242.648 200.565 241.614 198.822 240.673 197.052L241.413 196.312C242.377 198.147 243.442 199.954 244.61 201.725C258.2 222.34 258.2 247.66 244.61 268.275C236.742 280.21 233.504 293.74 234.896 306.987ZM246.737 318.828L245.229 317.32C240.436 300.749 243.059 282.954 253.098 267.725C266.468 247.443 266.468 222.557 253.098 202.275C250.638 198.543 248.623 194.657 247.054 190.672L247.826 189.9C249.392 193.963 251.428 197.925 253.933 201.725C267.523 222.34 267.523 247.66 253.933 268.275C243.696 283.804 241.297 302.033 246.737 318.828ZM254.313 312.095L253.464 312.944C250.275 297.654 253.261 281.621 262.422 267.725C275.792 247.443 275.792 222.557 262.422 202.275C258.531 196.373 255.754 190.086 254.091 183.634L254.915 182.811C256.532 189.358 259.313 195.742 263.257 201.725C276.847 222.34 276.847 247.66 263.257 268.275C254.374 281.749 251.393 297.257 254.313 312.095ZM262.62 303.788L261.672 304.736C260.855 292.022 264.213 279.151 271.745 267.725C285.115 247.443 285.115 222.557 271.745 202.275C266.289 193.998 263.023 184.962 261.948 175.777L262.854 174.871C263.813 184.176 267.055 193.343 272.58 201.725C286.17 222.34 286.17 247.66 272.58 268.275C265.345 279.251 262.025 291.575 262.62 303.788ZM272.291 294.117L271.16 295.248C272.106 285.711 275.409 276.31 281.068 267.725C294.438 247.443 294.438 222.557 281.068 202.275C273.841 191.312 270.457 179.018 270.917 166.808L271.968 165.758C271.266 178.119 274.578 190.613 281.903 201.725C295.493 222.34 295.493 247.66 281.903 268.275C276.578 276.353 273.374 285.161 272.291 294.117ZM284.432 281.976L282.863 283.545C284.561 278.082 287.07 272.763 290.392 267.725C303.762 247.443 303.762 222.557 290.392 202.275C281.036 188.083 278.121 171.66 281.647 156.079L283.002 154.723C278.965 170.509 281.707 187.284 291.227 201.725C304.817 222.34 304.817 247.66 291.227 268.275C288.337 272.658 286.072 277.256 284.432 281.976ZM303.978 262.43L301.425 264.983C313.058 245.232 312.488 221.652 299.715 202.275C287.326 183.482 286.231 160.78 296.429 141.296L299.031 138.694C287.201 158.511 287.707 182.243 300.55 201.725C312.881 220.43 314.023 243.008 303.978 262.43ZM317.308 249.101C321.279 233.367 318.523 216.662 309.038 202.275C295.448 181.66 295.448 156.34 309.038 135.725C311.969 131.28 314.257 126.614 315.902 121.823L317.461 120.265C315.762 125.794 313.233 131.179 309.873 136.275C296.503 156.557 296.503 181.443 309.873 201.725C319.195 215.866 322.123 232.221 318.656 247.752L317.308 249.101ZM328.305 238.103C328.974 225.787 325.659 213.345 318.362 202.275C304.772 181.66 304.772 156.34 318.362 135.725C323.716 127.603 326.926 118.742 327.992 109.734L329.119 108.607C328.192 118.194 324.885 127.647 319.197 136.275C305.827 156.557 305.827 181.443 319.197 201.725C326.397 212.647 329.782 224.891 329.353 237.055L328.305 238.103ZM338.303 228.105L337.398 229.01C336.424 219.746 333.187 210.621 327.685 202.275C314.095 181.66 314.095 156.34 327.685 135.725C334.945 124.712 338.263 112.341 337.638 100.087L338.584 99.141C339.431 111.895 336.076 124.812 328.52 136.275C315.15 156.557 315.15 181.443 328.52 201.725C333.953 209.967 337.214 218.961 338.303 228.105ZM346.146 220.262L345.324 221.084C343.703 214.573 340.931 208.226 337.008 202.275C323.418 181.66 323.418 156.34 337.008 135.725C345.913 122.217 348.887 106.667 345.93 91.795L346.778 90.9477C350.004 106.27 347.025 122.346 337.843 136.275C324.473 156.557 324.473 181.443 337.843 201.725C341.713 207.595 344.481 213.846 346.146 220.262ZM353.174 213.234L352.402 214.006C350.841 209.976 348.817 206.046 346.332 202.275C332.741 181.66 332.741 156.34 346.332 135.725C356.718 119.97 359.036 101.436 353.285 84.4401L354.073 83.6528C360.122 101.063 357.82 120.115 347.166 136.275C333.796 156.557 333.796 181.443 347.166 201.725C349.607 205.428 351.61 209.282 353.174 213.234ZM359.546 206.862L358.806 207.602C357.855 205.796 356.804 204.019 355.655 202.275C342.065 181.66 342.065 156.34 355.655 135.725C367.41 117.893 368.83 96.502 359.915 77.8106L360.664 77.0612C369.898 96.1411 368.506 118.047 356.49 136.275C343.12 156.557 343.12 181.443 356.49 201.725C357.599 203.408 358.618 205.122 359.546 206.862ZM364.644 201.764C351.389 181.242 351.5 156.17 364.978 135.725C378.348 115.443 378.348 90.5566 364.978 70.2752C355.367 55.6961 352.553 38.7641 356.536 22.8071L357.56 22.8348C353.565 38.5877 356.316 55.3182 365.813 69.7248C379.403 90.3401 379.403 115.66 365.813 136.275C352.593 156.329 352.445 180.885 365.368 201.04L364.644 201.764ZM370.571 195.837C360.852 176.549 362.096 154.24 374.301 135.725C387.671 115.443 387.671 90.5566 374.301 70.2752C364.741 55.7723 361.906 38.941 365.797 23.0574L366.821 23.0851C362.918 38.7648 365.689 55.3944 375.136 69.7248C388.726 90.3401 388.726 115.66 375.136 136.275C363.192 154.394 361.918 176.189 371.316 195.092L370.571 195.837ZM377.072 189.336C370.585 171.661 372.769 152.192 383.625 135.725C396.995 115.443 396.995 90.5566 383.625 70.2752C374.114 55.8485 371.259 39.1177 375.06 23.3077L376.082 23.3354C372.271 38.9416 375.063 55.4707 384.46 69.7248C398.05 90.3401 398.05 115.66 384.46 136.275C373.87 152.338 371.668 171.291 377.853 188.556L377.072 189.336ZM384.256 182.152C380.649 166.502 383.546 149.987 392.948 135.725C406.318 115.443 406.318 90.5566 392.948 70.2752C383.488 55.9246 380.613 39.2943 384.324 23.5581L385.345 23.5857C381.624 39.1183 384.437 55.5469 393.783 69.7248C407.373 90.3401 407.373 115.66 393.783 136.275C384.657 150.119 381.76 166.109 385.093 181.315L384.256 182.152ZM392.303 174.105C391.146 160.948 394.469 147.561 402.271 135.725C415.641 115.443 415.641 90.5566 402.271 70.2752C392.861 56.0007 389.967 39.4706 393.588 23.8085L394.609 23.8361C390.978 39.2947 393.81 55.623 403.106 69.7248C416.696 90.3401 416.696 115.66 403.106 136.275C395.597 147.667 392.305 160.511 393.231 173.177L392.303 174.105ZM401.55 164.859C402.269 154.771 405.617 144.793 411.595 135.725C424.965 115.443 424.965 90.5566 411.595 70.2752C402.235 56.0767 399.321 39.6467 402.854 24.0589L403.874 24.0865C400.332 39.4709 403.184 55.6991 412.43 69.7248C426.02 90.3401 426.02 115.66 412.43 136.275C406.778 144.848 403.516 154.243 402.642 163.766L401.55 164.859ZM412.784 153.624C414.465 147.432 417.177 141.4 420.918 135.725C434.288 115.443 434.288 90.5566 420.918 70.2752C411.608 56.1528 408.676 39.8225 412.122 24.3094L413.14 24.3369C409.686 39.6469 412.557 55.7752 421.753 69.7248C435.343 90.3401 435.343 115.66 421.753 136.275C418.419 141.332 415.917 146.676 414.245 152.163L412.784 153.624ZM426.577 142.032C427.663 139.889 428.884 137.784 430.241 135.725C443.611 115.443 443.611 90.5566 430.241 70.2752C420.982 56.2288 418.031 39.9982 421.39 24.5599L422.408 24.5874C419.041 39.8227 421.931 55.8513 431.076 69.7248C444.666 90.3401 444.666 115.66 431.076 136.275C429.678 138.396 428.427 140.566 427.321 142.777L426.577 142.032ZM433.065 148.52C434.693 144.118 436.86 139.828 439.565 135.725C452.935 115.443 452.935 90.5566 439.565 70.2752C430.355 56.3047 427.387 40.1737 430.659 24.8104L431.676 24.8379C428.396 39.9983 431.304 55.9273 440.4 69.7248C453.99 90.3401 453.99 115.66 440.4 136.275C437.648 140.449 435.463 144.817 433.844 149.3L433.065 148.52ZM440.233 155.689C441.847 148.773 444.732 142.029 448.888 135.725C462.258 115.443 462.258 90.5566 448.888 70.2752C439.728 56.3806 436.742 40.349 439.93 25.061L440.946 25.0884C437.752 40.1736 440.677 56.0033 449.723 69.7248C463.313 90.3401 463.313 115.66 449.723 136.275C445.511 142.664 442.627 149.509 441.068 156.524L440.233 155.689ZM448.259 163.715C449.142 154.018 452.46 144.45 458.211 135.725C471.581 115.443 471.581 90.5566 458.211 70.2752C449.102 56.4565 446.098 40.524 449.201 25.3115L450.217 25.339C447.108 40.3488 450.051 56.0792 459.046 69.7248C472.636 90.3401 472.636 115.66 459.046 136.275C453.222 145.11 449.935 154.819 449.185 164.641L448.259 163.715ZM457.475 172.931C456.611 160.153 459.964 147.209 467.535 135.725C480.905 115.443 480.905 90.5566 467.535 70.2752C458.475 56.5324 455.455 40.6989 458.474 25.5622L459.489 25.5896C456.464 40.5238 459.424 56.1551 468.37 69.7248C473.391 77.3422 476.557 85.6018 477.868 94.0292L478.268 108.844C477.31 118.35 474.011 127.718 468.37 136.275C460.694 147.919 457.424 161.081 458.562 174.018L457.475 172.931ZM470.1 185.556L468.652 184.107C464.328 167.884 467.063 150.583 476.858 135.725C477.579 134.631 478.262 133.523 478.905 132.404L478.956 134.282C478.549 134.951 478.128 135.616 477.693 136.275C467.714 151.413 465.183 169.117 470.1 185.556ZM480.424 188.596L480.504 191.584C474.891 177.979 474.511 163.167 479.364 149.398L479.445 152.374C475.871 164.267 476.197 176.825 480.424 188.596ZM476.194 32.1101L476.543 45.0211C475.948 40.7354 475.832 36.411 476.194 32.1101ZM477.19 68.95C468.686 55.6384 465.877 40.415 468.762 25.8402L467.748 25.8128C464.812 40.8736 467.848 56.6082 476.858 70.2752C476.987 70.4712 477.115 70.6675 477.242 70.8643L477.19 68.95ZM359.704 75.1595C358.734 73.3169 357.662 71.5034 356.49 69.7248C346.942 55.2419 344.213 38.4104 348.301 22.5845L347.276 22.5568C343.201 38.5869 345.994 55.6198 355.655 70.2752C356.147 71.0214 356.621 71.7739 357.076 72.5322L359.704 75.1595ZM340.268 55.7242C336.555 44.8529 336.146 33.3456 339.043 22.3343L338.017 22.3066C335.299 32.807 335.531 43.7458 338.715 54.171L340.268 55.7242ZM328.204 43.66C327.362 36.4603 327.889 29.1676 329.786 22.0841L328.759 22.0564C326.986 28.7829 326.426 35.6927 327.079 42.535L328.204 43.66ZM318.57 34.0255C318.783 29.93 319.436 25.8478 320.53 21.834L319.502 21.8062C318.506 25.5214 317.88 29.2935 317.624 33.0802L318.57 34.0255ZM298.334 84.2417C296.652 79.2361 294.283 74.3615 291.227 69.7248C287.021 63.3459 284.139 56.5113 282.579 49.5078L281.287 48.2162C282.782 55.863 285.817 63.3357 290.392 70.2752C293.496 74.9846 295.88 79.9423 297.543 85.033L298.334 84.2417ZM290.972 91.6036C289.465 84.0196 286.442 76.6098 281.903 69.7248C275.58 60.1332 272.248 49.5115 271.905 38.834L270.881 37.8103C271.038 49.0233 274.433 60.21 281.068 70.2752C285.666 77.2495 288.683 84.7685 290.118 92.4575L290.972 91.6036ZM282.689 99.8865C282.13 89.4496 278.761 79.1006 272.58 69.7248C264.496 57.4618 261.3 43.515 262.992 29.9205L262.1 29.029C260.16 43.0968 263.375 57.5783 271.745 70.2752C278.004 79.7704 281.333 90.275 281.732 100.844L282.689 99.8865ZM273.087 109.489C274.61 95.8893 271.333 81.9763 263.257 69.7248C253.615 55.0997 250.927 38.0798 255.19 22.119L254.376 21.3044C249.826 37.6966 252.509 55.2375 262.422 70.2752C270.617 82.7063 273.789 96.8675 271.938 110.638L273.087 109.489ZM261.152 121.424C266.805 104.265 264.399 85.6002 253.933 69.7248C242.87 52.9424 240.961 33.0066 248.207 15.1361L247.441 14.3695C239.885 32.6408 241.771 53.0922 253.098 70.2752C263.789 86.4918 265.931 105.653 259.526 123.05L261.152 121.424ZM242.026 140.55C242.823 139.105 243.685 137.679 244.61 136.275C258.2 115.66 258.2 90.3401 244.61 69.7248C233.502 52.8752 231.623 32.8468 238.971 14.9215L237.218 16.6748C230.736 34.3471 232.922 53.8114 243.775 70.2752C257.145 90.5566 257.145 115.443 243.775 135.725C242.237 138.059 240.872 140.453 239.682 142.894L242.026 140.55ZM226.804 155.771C228.399 149.02 231.226 142.435 235.287 136.275C248.877 115.66 248.877 90.3401 235.287 69.7248C226.803 56.8557 223.703 42.1323 225.985 27.9079L224.798 29.0952C222.877 43.1423 226.095 57.5982 234.452 70.2752C247.822 90.5566 247.822 115.443 234.452 135.725C230.016 142.454 227.028 149.684 225.488 157.088L226.804 155.771ZM215.987 166.589C216.429 156.106 219.754 145.694 225.963 136.275C239.553 115.66 239.553 90.3401 225.963 69.7248C219.466 59.8683 216.126 48.924 215.944 37.9492L214.968 38.9252C215.326 49.7637 218.713 60.5436 225.128 70.2752C238.498 90.5566 238.498 115.443 225.128 135.725C218.605 145.621 215.213 156.6 214.952 167.624L215.987 166.589ZM206.992 175.583C205.438 162.146 208.654 148.389 216.64 136.275C230.23 115.66 230.23 90.3401 216.64 69.7248C211.833 62.4323 208.754 54.5445 207.404 46.4893L206.539 47.354C207.97 55.301 211.059 63.0751 215.805 70.2752C229.175 90.5566 229.175 115.443 215.805 135.725C207.532 148.274 204.295 162.567 206.095 176.481L206.992 175.583ZM199.135 183.441C195.037 167.608 197.764 150.766 207.317 136.275C220.907 115.66 220.907 90.3401 207.317 69.7248C204.021 64.7257 201.538 59.4467 199.867 54.0259L199.069 54.824C200.764 60.1573 203.235 65.3505 206.482 70.2752C219.852 90.5566 219.852 115.443 206.482 135.725C196.657 150.629 193.935 167.993 198.316 184.259L199.135 183.441ZM192.108 190.467C185.05 172.699 187.012 152.934 197.993 136.275C211.584 115.66 211.584 90.3401 197.993 69.7248C196.088 66.8347 194.455 63.8511 193.092 60.8007L192.336 61.5569C193.688 64.5352 195.296 67.4494 197.159 70.2752C210.529 90.5566 210.529 115.443 197.159 135.725C185.912 152.784 183.973 173.066 191.339 191.236L192.108 190.467ZM185.747 196.828C175.384 177.534 176.358 154.952 188.67 136.275C202.26 115.66 202.26 90.3401 188.67 69.7248C188.067 68.8094 187.491 67.8847 186.942 66.9514L186.211 67.6815C186.729 68.5538 187.271 69.4185 187.835 70.2752C201.205 90.5566 201.205 115.443 187.835 135.725C175.263 154.796 174.321 177.892 185.009 197.566L185.747 196.828ZM179.938 202.638C179.744 202.333 179.547 202.028 179.347 201.725C165.977 181.443 165.977 156.557 179.347 136.275C192.29 116.641 192.906 92.739 181.194 72.6985L180.463 73.43C191.847 93.0965 191.196 116.483 178.512 135.725C164.922 156.34 164.922 181.66 178.512 202.275C178.75 202.636 178.984 202.999 179.213 203.363L179.938 202.638ZM186.076 251.649L187.529 250.196C186.891 252.575 186.102 254.93 185.16 257.251L184.391 256.482C185.026 254.886 185.587 253.274 186.076 251.649ZM190.751 262.842C194.646 255.595 196.941 247.883 197.636 240.089L198.725 239C198.145 247.422 195.733 255.771 191.489 263.579L190.751 262.842ZM173.974 208.602C172.817 206.262 171.501 203.966 170.023 201.725C156.654 181.443 156.654 156.557 170.023 136.275C181.664 118.617 183.334 97.5079 175.033 78.8597L174.275 79.6181C182.262 97.8713 180.566 118.466 169.189 135.725C155.598 156.34 155.598 181.66 169.189 202.275C170.707 204.578 172.053 206.941 173.226 209.349L173.974 208.602ZM167.428 215.147C165.776 210.526 163.534 206.023 160.7 201.725C147.33 181.443 147.33 156.557 160.7 136.275C170.951 120.726 173.47 102.5 168.257 85.6358L167.456 86.4373C172.376 102.878 169.846 120.585 159.865 135.725C146.275 156.34 146.275 181.66 159.865 202.275C162.745 206.644 165.005 211.227 166.644 215.931L167.428 215.147ZM160.19 222.386C158.61 215.227 155.672 208.241 151.377 201.725C138.007 181.443 138.007 156.557 151.377 136.275C160.118 123.015 163.237 107.809 160.733 93.1598L159.863 94.03C162.108 108.217 159.001 122.893 150.542 135.725C136.952 156.34 136.952 181.66 150.542 202.275C154.894 208.877 157.83 215.967 159.348 223.227L160.19 222.386ZM152.072 230.503C151.301 220.537 147.961 210.686 142.054 201.725C128.684 181.443 128.684 156.557 142.054 136.275C149.112 125.567 152.505 113.59 152.231 101.662L151.245 102.648C151.315 114.057 147.973 125.479 141.219 135.725C127.629 156.34 127.629 181.66 141.219 202.275C147.201 211.35 150.506 221.347 151.135 231.44L152.072 230.503ZM142.72 239.856C143.814 226.779 140.484 213.486 132.73 201.725C119.36 181.443 119.36 156.557 132.73 136.275C137.824 128.549 141.008 120.162 142.284 111.609L141.076 112.817C139.698 120.758 136.637 128.531 131.895 135.725C118.305 156.34 118.305 181.66 131.895 202.275C139.759 214.203 142.997 227.724 141.611 240.964L142.72 239.856ZM131.285 251.291C136.066 234.729 133.44 216.945 123.407 201.725C110.037 181.443 110.037 156.557 123.407 136.275C125.945 132.425 128.009 128.411 129.599 124.294L127.771 126.122C126.352 129.408 124.618 132.621 122.572 135.725C108.982 156.34 108.982 181.66 122.572 202.275C132.803 217.795 135.205 236.012 129.778 252.798L131.285 251.291ZM10.8947 166.135C11.3191 157.666 13.6263 149.252 17.8163 141.38L17.0775 140.641C13.9226 146.501 11.7967 152.661 10.6999 158.925L10.8947 166.135Z" fill="#FF3B30"/>
<path d="M11.5952 0.000793457L74.5952 63.0008L13.2531 61.3429L11.5952 0.000793457Z" fill="url(#paint0_linear)"/>
<path d="M481.595 349.001L422.595 290.001L480.043 291.553L481.595 349.001Z" fill="url(#paint1_linear)"/>
<path fill-rule="evenodd" clip-rule="evenodd" d="M51.0551 56.2974C51.3194 60.3132 51.3345 64.3412 51.1003 68.3584L52.1004 68.3855C52.3132 64.7145 52.32 61.0347 52.1208 57.3631L51.0551 56.2974ZM37.9373 43.1796C39.5967 51.3799 40.1995 59.7372 39.7458 68.0516L38.7458 68.0245C39.2254 59.2805 38.5245 50.4883 36.6429 41.8852L37.9373 43.1796ZM20.1948 25.4371C25.7239 38.9699 28.1224 53.4034 27.3901 67.7176L26.3902 67.6906C27.1601 52.7137 24.4674 37.6044 18.3121 23.5544L20.1948 25.4371ZM0.595215 11.069C0.942641 11.6955 1.29744 12.3194 1.6596 12.9403C11.4691 29.7587 15.927 48.6664 15.0332 67.3836L14.0334 67.3566C14.9223 48.8224 10.5098 30.0989 0.7958 13.4441C0.747992 13.3621 0.700311 13.2801 0.652757 13.198L0.595215 11.069ZM1.57739 47.4094C2.6001 53.9125 2.96607 60.4919 2.67528 67.0497L2.10779 67.0343L1.57739 47.4094Z" fill="url(#paint2_linear)"/>
<path fill-rule="evenodd" clip-rule="evenodd" d="M430.805 303.089C430.541 299.073 430.526 295.045 430.76 291.028L429.76 291.001C429.547 294.672 429.54 298.352 429.74 302.023L430.805 303.089ZM443.923 316.207C442.264 308.006 441.661 299.649 442.115 291.335L443.115 291.362C442.635 300.106 443.336 308.898 445.217 317.501L443.923 316.207ZM461.666 333.949C456.136 320.416 453.738 305.983 454.47 291.669L455.47 291.696C454.7 306.672 457.393 321.782 463.548 335.832L461.666 333.949ZM481.265 348.317C480.918 347.691 480.563 347.067 480.201 346.446C470.391 329.627 465.933 310.72 466.827 292.003L467.827 292.03C466.938 310.564 471.351 329.287 481.065 345.942C481.112 346.024 481.16 346.106 481.208 346.188L481.265 348.317ZM480.283 311.977C479.26 305.474 478.894 298.894 479.185 292.337L479.753 292.352L480.283 311.977Z" fill="#5AC8FA"/>
<defs>
<linearGradient id="paint0_linear" x1="74.5952" y1="82.8341" x2="-19.0063" y2="29.8075" gradientUnits="userSpaceOnUse">
<stop offset="0.00102305" stop-color="#F0533D"/>
<stop offset="0.918138" stop-color="#FF5555" stop-opacity="0"/>
</linearGradient>
<linearGradient id="paint1_linear" x1="500.533" y1="290.001" x2="443.095" y2="327.624" gradientUnits="userSpaceOnUse">
<stop stop-color="#3DB0F0"/>
<stop offset="0.782422" stop-color="#1DA3EF" stop-opacity="0"/>
</linearGradient>
<linearGradient id="paint2_linear" x1="63.4499" y1="88.5254" x2="-30.1516" y2="35.4987" gradientUnits="userSpaceOnUse">
<stop offset="0.00102305" stop-color="#F0533D"/>
<stop offset="0.918138" stop-color="#FF5555" stop-opacity="0"/>
</linearGradient>
</defs>
</svg>
