<svg width="559" height="331" viewBox="0 0 559 331" fill="none" xmlns="http://www.w3.org/2000/svg">
<path fill-rule="evenodd" clip-rule="evenodd" d="M246.203 200.634C238.911 193.343 238.911 181.521 246.203 174.229L343.479 76.9525C350.771 69.6608 362.593 69.6608 369.885 76.9525L467.161 174.229C474.453 181.521 474.453 193.343 467.161 200.634L369.885 297.911C362.593 305.202 350.771 305.202 343.479 297.911L246.203 200.634ZM312.672 167.237C319.46 174.025 319.46 185.031 312.672 191.82C305.884 198.608 294.877 198.608 288.089 191.82C281.301 185.031 281.301 174.025 288.089 167.237C294.877 160.449 305.884 160.449 312.672 167.237ZM361.837 142.655C368.626 135.866 368.626 124.86 361.837 118.072C355.049 111.284 344.043 111.284 337.255 118.072C330.466 124.86 330.466 135.866 337.255 142.655C344.043 149.443 355.049 149.443 361.837 142.655ZM345.157 199.722C351.945 206.51 351.945 217.516 345.157 224.305C338.368 231.093 327.362 231.093 320.574 224.305C313.786 217.516 313.786 206.51 320.574 199.722C327.362 192.934 338.368 192.934 345.157 199.722ZM394.321 175.139C401.109 168.35 401.109 157.344 394.321 150.556C387.533 143.768 376.526 143.768 369.738 150.556C362.95 157.344 362.95 168.35 369.738 175.139C376.526 181.927 387.533 181.927 394.321 175.139ZM377.64 232.206C384.428 238.994 384.428 250 377.64 256.789C370.852 263.577 359.846 263.577 353.057 256.789C346.269 250 346.269 238.994 353.057 232.206C359.846 225.417 370.852 225.417 377.64 232.206ZM426.806 207.623C433.595 200.835 433.595 189.829 426.806 183.04C420.018 176.252 409.012 176.252 402.224 183.04C395.435 189.829 395.435 200.835 402.224 207.623C409.012 214.412 420.018 214.411 426.806 207.623Z" fill="url(#paint0_radial)"/>
<rect x="435" y="61.75" width="87.3277" height="87.3277" rx="17" transform="rotate(-45 435 61.75)" fill="url(#paint1_linear)"/>
<path fill-rule="evenodd" clip-rule="evenodd" d="M544.933 54.7296C543.015 59.8162 540.657 64.7852 537.859 69.5826C533.736 76.6515 530.558 84.0895 528.326 91.7274L529.824 90.2292C531.996 83.2922 534.962 76.5343 538.723 70.0864C541.284 65.6949 543.48 61.161 545.312 56.5252C545.204 55.9237 545.078 55.3248 544.933 54.7296ZM537.588 41.2368C535.417 51.2255 531.67 60.9633 526.349 70.0864C519.879 81.1791 515.761 93.1895 513.995 105.45C513.628 105.71 513.256 105.961 512.88 106.203C514.591 93.506 518.792 81.058 525.485 69.5826C530.867 60.3556 534.622 50.4936 536.749 40.3807L536.998 40.6294C537.198 40.8297 537.395 41.0322 537.588 41.2368ZM526.928 30.5602C525.496 44.2604 521.179 57.7366 513.976 70.0864C506.597 82.7371 502.277 96.5815 501.016 110.63C500.679 110.679 500.34 110.722 500.001 110.76C501.249 96.4924 505.62 82.4281 513.112 69.5826C520.384 57.1143 524.685 43.4865 526.015 29.6468L526.928 30.5602ZM488.714 109.87C490.061 96.0824 494.357 82.5089 501.602 70.0864C510.819 54.2849 515.311 36.6393 515.079 19.04C514.746 18.7805 514.408 18.529 514.066 18.2855C514.439 35.9604 509.996 53.7109 500.739 69.5825C493.452 82.075 489.119 95.7201 487.738 109.584C488.062 109.685 488.387 109.78 488.714 109.87ZM477.142 103.706C479.037 92.0513 483.066 80.6525 489.229 70.0864C499.448 52.5662 503.859 32.7788 502.463 13.3012C502.125 13.2353 501.786 13.1751 501.447 13.1208C502.885 32.4821 498.525 52.1638 488.365 69.5826C482.251 80.0661 478.215 91.3613 476.26 102.916C476.55 103.186 476.844 103.45 477.142 103.706ZM466.957 93.6414C469.181 85.5076 472.481 77.5872 476.856 70.0864C487.045 52.6167 491.46 32.893 490.101 13.4698C489.772 13.5437 489.443 13.6231 489.116 13.7082C490.423 32.8799 486.049 52.3399 475.992 69.5826C471.671 76.9908 468.388 84.8045 466.144 92.8286L466.957 93.6414ZM457.641 84.3258C459.517 79.4531 461.797 74.6907 464.482 70.0864C473.654 54.3622 478.147 36.8118 477.962 19.2981C477.626 19.5672 477.295 19.8446 476.968 20.1303C477.003 37.1931 472.554 54.263 463.618 69.5825C460.982 74.1031 458.732 78.7747 456.868 83.5529L457.641 84.3258ZM450.056 73.7861C450.712 72.5423 451.396 71.3088 452.109 70.0864C459.04 58.2038 463.299 45.2784 464.887 32.114L463.732 33.2691C462.044 45.8592 457.882 58.2037 451.245 69.5826C450.666 70.5751 450.106 71.5748 449.564 72.5814C449.719 72.9858 449.883 73.3874 450.056 73.7861Z" fill="#5AC8FA"/>
<rect x="21" y="221" width="155.564" height="155.564" rx="28" transform="rotate(-45 21 221)" fill="url(#paint2_linear)"/>
<path opacity="0.5" fill-rule="evenodd" clip-rule="evenodd" d="M259.092 227.856C261.199 235.717 262.314 243.771 262.437 251.836C262.152 252.734 261.82 253.621 261.442 254.493C261.557 244.761 260.214 235.017 257.411 225.586C258.015 226.32 258.575 227.078 259.092 227.856ZM235.213 203.197L237.881 205.864C248.793 225.754 252.382 248.362 248.646 270.039L247.408 271.278C251.665 248.57 247.771 224.738 235.726 204.086C235.553 203.79 235.382 203.494 235.213 203.197ZM215.255 183.239C217.432 190.246 220.419 197.072 224.216 203.583C239.15 229.186 241.68 259.632 231.808 286.877L230.1 288.586C240.76 261.102 238.511 230.075 223.352 204.086C219.194 196.957 215.998 189.453 213.763 181.747L215.255 183.239ZM199.367 167.351C201.062 179.913 205.22 192.228 211.843 203.583C229.824 234.411 229.824 272.258 211.843 303.086L210.979 302.583C228.778 272.066 228.778 234.603 210.979 204.086C204.063 192.228 199.807 179.331 198.211 166.195L199.367 167.351ZM186.12 154.104C186.08 171.176 190.53 188.255 199.469 203.583C217.45 234.411 217.45 272.258 199.469 303.086L198.606 302.583C216.405 272.066 216.405 234.603 198.606 204.086C189.402 188.306 184.909 170.687 185.128 153.111L186.12 154.104ZM174.474 142.458C171.912 163.302 176.119 184.763 187.096 203.583C205.077 234.411 205.077 272.258 187.096 303.086L186.232 302.583C204.031 272.066 204.031 234.603 186.232 204.086C175.008 184.842 170.79 162.863 173.579 141.563L174.474 142.458ZM163.978 131.962C158.31 155.976 161.892 181.584 174.723 203.583C192.703 234.411 192.703 272.258 174.723 303.086L173.859 302.583C191.658 272.066 191.658 234.603 173.859 204.086C160.79 181.68 157.22 155.565 163.149 131.132L163.978 131.962ZM154.392 122.376C145.141 149.025 147.793 178.626 162.349 203.583C180.33 234.411 180.33 272.258 162.349 303.086L161.485 302.583C179.285 272.066 179.285 234.603 161.485 204.086C146.698 178.733 144.072 148.631 153.608 121.591L154.392 122.376ZM145.122 114.545C132.359 143.11 133.977 176.152 149.976 203.583C167.957 234.411 167.957 272.258 149.976 303.086L149.112 302.583C166.911 272.066 166.911 234.603 149.112 204.086C132.937 176.354 131.313 142.94 144.24 114.067C144.536 114.22 144.83 114.38 145.122 114.545ZM134.37 111.095C119.878 140.423 120.955 175.041 137.602 203.583C155.583 234.411 155.583 272.258 137.602 303.086L136.739 302.583C154.538 272.066 154.538 234.603 136.739 204.086C119.987 175.366 118.842 140.553 133.303 111C133.659 111.025 134.015 111.056 134.37 111.095ZM121.152 112.848C107.553 141.795 108.912 175.607 125.229 203.583C143.21 234.411 143.21 272.258 125.229 303.086L124.365 302.583C142.164 272.066 142.164 234.603 124.365 204.086C108.07 176.148 106.543 142.444 119.783 113.425C120.235 113.22 120.692 113.028 121.152 112.848ZM103.314 127.371C96.0228 152.682 99.2035 180.176 112.856 203.583C130.836 234.411 130.836 272.258 112.856 303.086L111.992 302.583C129.791 272.066 129.791 234.603 111.992 204.086C98.508 180.968 95.1359 153.902 101.875 128.809L103.314 127.371ZM87.8097 142.875C85.3548 163.589 89.5791 184.889 100.482 203.583C118.463 234.411 118.463 272.258 100.482 303.086L99.6185 302.583C117.418 272.066 117.418 234.603 99.6185 204.086C88.8233 185.578 84.5093 164.539 86.6765 144.008L87.8097 142.875ZM74.7725 155.912C75.0394 172.38 79.4849 188.796 88.1091 203.583C106.09 234.411 106.09 272.258 88.1091 303.086L87.2453 302.583C105.044 272.066 105.044 234.603 87.2453 204.086C78.7013 189.438 74.2172 173.204 73.7929 156.892L74.7725 155.912ZM63.2691 167.416C64.9691 179.955 69.1246 192.248 75.7356 203.583C93.7164 234.411 93.7164 272.258 75.7356 303.086L74.8718 302.583C92.671 272.066 92.671 234.603 74.8718 204.086C68.3256 192.863 64.1627 180.709 62.383 168.302L63.2691 167.416ZM52.883 177.802C55.0961 186.716 58.5892 195.399 63.3622 203.583C81.343 234.411 81.343 272.258 63.3622 303.086L62.4984 302.583C80.2976 272.066 80.2976 234.603 62.4984 204.086C57.7809 195.998 54.3012 187.427 52.0591 178.626L52.883 177.802ZM43.387 187.298C45.3949 192.884 47.9288 198.336 50.9889 203.583C68.9696 234.411 68.9696 272.258 50.9889 303.086L50.1251 302.583C67.9242 272.066 67.9242 234.603 50.1251 204.086C47.1148 198.925 44.6085 193.567 42.6062 188.079L43.387 187.298ZM34.6428 196.042C35.8504 198.596 37.1746 201.112 38.6155 203.583C55.5398 232.599 56.5342 267.835 41.5986 297.583L40.8532 296.837C55.4826 267.453 54.4488 232.714 37.7517 204.086C36.357 201.695 35.0705 199.262 33.8922 196.793L34.6428 196.042ZM26.5576 204.127C41.5983 230.291 43.7563 261.425 33.0314 289.016L32.258 288.242C42.6622 261.116 40.5178 230.581 25.8249 204.86L26.5576 204.127ZM18.3911 212.294C28.1574 233.617 29.9427 257.48 23.7469 279.731L22.9336 278.918C28.8547 257.166 27.0889 233.895 17.6362 213.049L18.3911 212.294ZM8.77278 221.912L9.55984 221.125C14.9812 236.783 16.3363 253.448 13.6252 269.609L12.7546 268.739C15.2569 253.121 13.9296 237.05 8.77278 221.912ZM0 235.714C0.18714 235.05 0.399255 234.392 0.636346 233.74C2.1994 241.431 2.83292 249.26 2.53689 257.063C2.19685 256.459 1.88098 255.846 1.58927 255.223C1.71591 248.697 1.18615 242.161 0 235.714Z" fill="#FFCC00"/>
<path fill-rule="evenodd" clip-rule="evenodd" d="M241 189.912C242.162 185.991 243.072 182.016 243.73 178.011C244.12 177.389 244.55 176.785 245.02 176.202C244.249 181.572 243.033 186.894 241.369 192.113C241.202 191.386 241.079 190.651 241 189.912ZM248.387 203.14C254.18 190.598 257.177 177.161 257.38 163.692L258.39 162.682C258.325 176.751 255.242 190.81 249.14 203.893L248.387 203.14ZM256.529 211.282C267.157 192.964 271.384 172.158 269.21 151.861L270.116 150.956C272.519 171.786 268.24 193.189 257.278 211.983C257.272 211.993 257.266 212.003 257.26 212.013L256.529 211.282ZM264.637 219.39C265.893 216.709 267.277 214.069 268.788 211.479C281.375 189.897 285.061 164.842 279.845 141.227L280.682 140.39C286.155 164.428 282.478 189.991 269.652 211.983C268.095 214.652 266.674 217.375 265.389 220.142L264.637 219.39ZM274.185 228.938L273.401 228.154C275.442 222.432 278.029 216.849 281.161 211.479C284.556 205.659 287.303 199.586 289.403 193.357C289.676 193.585 289.954 193.803 290.237 194.012C288.13 200.187 285.393 206.208 282.025 211.983C278.843 217.439 276.229 223.117 274.185 228.938ZM283.741 238.494L282.913 237.666C285.147 228.61 288.687 219.789 293.535 211.479C296.192 206.922 298.453 202.21 300.317 197.39C300.677 197.395 301.037 197.388 301.396 197.371C299.486 202.372 297.153 207.26 294.399 211.983C289.495 220.389 285.943 229.323 283.741 238.494ZM294.2 248.953L293.308 248.061C295.022 235.378 299.222 222.943 305.908 211.479C310.139 204.225 313.364 196.578 315.584 188.726C317.382 185.627 318.143 182.092 317.867 178.624C321.579 156.892 317.857 134.224 306.702 114.37L307.436 113.635C324.75 144.25 324.528 181.539 306.772 211.983C300.02 223.559 295.829 236.135 294.2 248.953ZM305.798 260.551L304.81 259.563C305.065 244.511 308.776 229.503 315.943 215.722C316.038 216.227 316.155 216.729 316.295 217.226C309.401 230.879 305.902 245.706 305.798 260.551ZM318.975 273.728L317.826 272.579C316.046 257.253 317.884 241.615 323.34 226.933C323.624 227.123 323.912 227.305 324.204 227.477C318.711 242.358 316.968 258.223 318.975 273.728ZM334.731 289.484L333.258 288.011C327.863 268.936 328.344 248.657 334.699 229.796C335.068 229.761 335.437 229.713 335.803 229.654C329.167 249.03 328.809 269.943 334.731 289.484ZM352.488 303.348C352.06 303.246 351.636 303.129 351.215 302.996C337.55 273.785 338.946 239.692 355.402 211.479C362.329 199.601 366.561 186.671 368.096 173.508C368.369 173.886 368.66 174.255 368.968 174.615C367.324 187.57 363.09 200.282 356.265 211.983C339.83 240.161 338.571 274.262 352.488 303.348ZM364.36 302.285C364.054 302.419 363.745 302.545 363.433 302.663C356.915 288.594 353.882 273.405 354.333 258.294C354.653 258.563 354.98 258.818 355.314 259.06C354.985 273.79 358.001 288.575 364.36 302.285ZM373.632 294.804L372.853 295.582C368.855 284.842 366.794 273.59 366.669 262.322C367.003 262.3 367.336 262.268 367.668 262.227C367.781 273.258 369.769 284.276 373.632 294.804ZM383.074 285.362L382.253 286.182C379.637 276.202 378.616 265.918 379.192 255.7C379.592 255.19 379.96 254.663 380.296 254.122C379.53 264.578 380.456 275.128 383.074 285.362ZM393.394 275.041L392.513 275.922C389.206 254.027 393.333 231.302 404.895 211.479C405.077 211.167 405.257 210.854 405.435 210.541C405.719 210.719 406.006 210.888 406.297 211.048C406.119 211.361 405.94 211.672 405.759 211.983C394.443 231.385 390.321 253.594 393.394 275.041ZM404.812 263.623L403.84 264.595C403.235 246.918 407.4 229.119 416.334 213.116C416.749 213.077 417.162 213.022 417.574 212.953C408.638 228.679 404.384 246.194 404.812 263.623ZM416.607 251.829C417.949 237.845 422.294 224.076 429.642 211.479C440.759 192.418 444.933 170.647 442.162 149.551L443.313 150.703C445.781 171.613 441.512 193.113 430.506 211.983C423.445 224.087 419.186 237.285 417.727 250.709L416.607 251.829ZM431.603 236.832C433.846 228.069 437.317 219.534 442.015 211.479C450.824 196.377 455.273 179.573 455.363 162.752L456.353 163.742C456.097 180.406 451.606 197.021 442.879 211.983C438.525 219.448 435.235 227.33 433.011 235.424L431.603 236.832ZM451.358 217.077C452.304 215.188 453.314 213.321 454.389 211.479C461.165 199.86 465.362 187.234 466.979 174.368L467.32 174.71C467.508 174.897 467.691 175.088 467.868 175.281C466.165 188.006 461.96 200.483 455.252 211.983C454.723 212.89 454.209 213.804 453.711 214.724L451.358 217.077ZM428.787 185.66C432.854 169.071 432.539 151.697 427.84 135.229L426.36 133.749C431.424 150.313 431.971 167.872 428.001 184.651C428.277 184.98 428.539 185.316 428.787 185.66ZM417.852 178.721C421.572 156.847 417.838 134.038 406.651 114.04L403.967 111.356C404.271 111.9 404.58 112.442 404.895 112.983C416.656 133.147 420.646 156.345 416.864 178.568C417.195 178.609 417.524 178.66 417.852 178.721ZM404.991 181.373C409.601 158.129 405.733 133.649 393.386 112.479C389.505 105.825 386.47 98.841 384.281 91.6708L382.803 90.1919C385.043 98.0563 388.283 105.714 392.522 112.983C404.936 134.267 408.692 158.929 403.789 182.258C404.18 181.944 404.581 181.649 404.991 181.373ZM397.975 200.651C396.395 204.339 394.577 207.955 392.522 211.479C387.51 220.071 383.896 229.208 381.678 238.586C381.915 239.188 382.118 239.801 382.286 240.421C384.439 230.575 388.139 220.977 393.386 211.983C395.272 208.749 396.96 205.438 398.45 202.065C398.271 201.6 398.113 201.128 397.975 200.651ZM373.043 229.308C375.106 223.358 377.762 217.554 381.012 211.983C387.492 200.872 391.637 188.85 393.446 176.574C393.073 176.892 392.69 177.191 392.297 177.473C390.429 189.262 386.379 200.796 380.148 211.479C376.88 217.082 374.206 222.917 372.126 228.899C372.435 229.026 372.74 229.162 373.043 229.308ZM361.073 228.168C363.075 222.616 365.597 217.198 368.639 211.983C374.406 202.095 378.323 191.486 380.391 180.618C380.059 180.584 379.727 180.54 379.398 180.486C377.348 191.225 373.474 201.708 367.775 211.479C364.575 216.965 361.944 222.674 359.883 228.526C360.276 228.392 360.673 228.273 361.073 228.168ZM379.781 146.112C377.853 134.628 373.851 123.4 367.775 112.983C360.332 100.222 355.97 86.2585 354.689 72.0881C355.02 72.0499 355.353 72.0205 355.685 72C356.954 86.0262 361.271 99.8474 368.639 112.479C374.787 123.02 378.833 134.381 380.776 146.003C380.444 146.029 380.112 146.066 379.781 146.112ZM369.194 151.782C368.634 146.538 367.651 141.328 366.245 136.202C366.07 136.745 365.868 137.28 365.638 137.806C366.923 142.768 367.811 147.806 368.3 152.872C368.581 152.499 368.879 152.136 369.194 151.782ZM356.445 114.816C356.104 114.202 355.756 113.591 355.402 112.983C349.003 102.011 344.881 90.1514 343.036 78.0351L343.638 77.4331C343.731 77.3408 343.824 77.2497 343.918 77.1597C345.687 89.405 349.803 101.4 356.265 112.479C356.859 113.497 357.434 114.523 357.989 115.557C357.484 115.283 356.969 115.036 356.445 114.816ZM344.846 114.151C344.52 114.246 344.196 114.35 343.875 114.464C343.597 113.968 343.315 113.475 343.028 112.983C338.447 105.128 335.033 96.8185 332.786 88.2851L333.606 87.4651C335.827 96.1105 339.256 104.53 343.892 112.479C344.216 113.034 344.534 113.591 344.846 114.151ZM355.23 147.329C355.552 147.222 355.871 147.104 356.188 146.978C359.192 166.12 356.507 185.922 348.131 203.885C347.933 203.539 347.723 203.199 347.501 202.865C355.546 185.305 358.123 166.004 355.23 147.329ZM335.726 120.509C334.454 117.787 333.052 115.107 331.519 112.479C328.587 107.453 326.139 102.239 324.173 96.8985L323.395 97.6766C325.353 102.92 327.773 108.042 330.655 112.983C332.272 115.756 333.743 118.586 335.066 121.464C335.274 121.14 335.494 120.822 335.726 120.509ZM342.772 146.789C343.128 146.944 343.488 147.086 343.851 147.216C346.378 163.574 344.751 180.407 338.971 196.156C338.657 196.042 338.34 195.937 338.021 195.841C343.82 180.058 345.404 163.174 342.772 146.789ZM326.519 196.37C336.646 168.973 334.188 138.27 319.145 112.479C317.827 110.218 316.606 107.92 315.483 105.589L314.734 106.337C315.827 108.584 317.009 110.801 318.281 112.983C333.342 138.804 335.659 169.598 325.233 196.95C325.655 196.738 326.084 196.545 326.519 196.37ZM392.655 149.447C390.98 136.804 386.812 124.407 380.148 112.983C373.257 101.166 369.006 88.3191 367.398 75.231C367.777 75.4915 368.148 75.7675 368.512 76.0591C370.19 88.6859 374.357 101.068 381.012 112.479C387.929 124.338 392.185 137.236 393.781 150.374C393.415 150.047 393.04 149.738 392.655 149.447ZM307.864 164.239C308.158 149.811 305.277 135.334 299.221 121.851L298.464 122.608C304.297 135.73 307.1 149.791 306.871 163.816C307.205 163.946 307.536 164.087 307.864 164.239ZM295.504 163.368C295.632 152.353 293.908 141.321 290.334 130.737L289.544 131.527C293.012 141.972 294.664 152.849 294.499 163.705C294.832 163.582 295.167 163.47 295.504 163.368Z" fill="#5AC8FA"/>
<defs>
<radialGradient id="paint0_radial" cx="0" cy="0" r="1" gradientUnits="userSpaceOnUse" gradientTransform="translate(494.282 285.968) rotate(-157.655) scale(410.109 304.638)">
<stop stop-color="#3DB0F0"/>
<stop offset="0.782422" stop-color="#1DA3EF" stop-opacity="0"/>
</radialGradient>
<linearGradient id="paint1_linear" x1="490.611" y1="205.026" x2="467.946" y2="28.8036" gradientUnits="userSpaceOnUse">
<stop stop-color="#F0C93D"/>
<stop offset="0.903304" stop-color="#FFD362" stop-opacity="0"/>
</linearGradient>
<linearGradient id="paint2_linear" x1="120.065" y1="476.23" x2="79.69" y2="162.31" gradientUnits="userSpaceOnUse">
<stop stop-color="#F0C93D"/>
<stop offset="0.903304" stop-color="#FFD362" stop-opacity="0"/>
</linearGradient>
</defs>
</svg>
