<svg width="800" height="430" viewBox="0 0 800 430" fill="none" xmlns="http://www.w3.org/2000/svg">
<path fill-rule="evenodd" clip-rule="evenodd" d="M760.631 300.462C765.057 271.683 767.353 242.2 767.353 212.182C767.353 210.16 767.343 208.14 767.322 206.123C766.649 204.055 765.949 201.978 765.224 199.896C765.31 203.981 765.353 208.076 765.353 212.182C765.353 242.664 762.977 272.592 758.4 301.789C759.164 301.372 759.908 300.93 760.631 300.462ZM772.344 287.16C774.198 272.648 775.521 257.971 776.293 243.147C776.911 247.488 777.323 251.699 777.507 255.75C776.927 263.672 776.189 271.55 775.298 279.381C774.522 282.149 773.542 284.748 772.344 287.16ZM747.892 305.719C752.967 275.295 755.609 244.047 755.609 212.182C755.609 198.668 755.133 185.264 754.199 171.988C753.408 170.187 752.604 168.39 751.788 166.598C752.994 181.634 753.609 196.836 753.609 212.182C753.609 244.207 750.931 275.607 745.788 306.17C746.499 306.032 747.2 305.882 747.892 305.719ZM735.714 307.263C741.072 276.373 743.864 244.604 743.864 212.182C743.864 188.211 742.338 164.597 739.377 141.432C738.491 139.763 737.598 138.106 736.7 136.464C740.105 161.216 741.864 186.494 741.864 212.182C741.864 244.622 739.059 276.407 733.676 307.307C734.361 307.301 735.041 307.286 735.714 307.263ZM723.632 306.85C729.062 276.112 731.894 244.478 731.894 212.182C731.894 178.21 728.76 144.97 722.766 112.735C721.799 111.204 720.833 109.697 719.867 108.216C726.446 141.855 729.894 176.616 729.894 212.182C729.894 244.408 727.064 275.973 721.638 306.642C722.306 306.718 722.971 306.787 723.632 306.85ZM711.998 305.187C717.355 274.993 720.15 243.914 720.15 212.182C720.15 169.361 715.06 127.73 705.453 87.8584C704.452 86.5729 703.459 85.3278 702.478 84.1252C712.715 125.12 718.15 168.016 718.15 212.182C718.15 243.784 715.367 274.736 710.034 304.807C710.691 304.939 711.346 305.065 711.998 305.187ZM700.523 302.624C705.703 273.257 708.405 243.035 708.405 212.182C708.405 162.557 701.415 114.565 688.364 69.1364C687.446 68.3141 686.518 67.5097 685.58 66.7231C699.134 112.851 706.405 161.667 706.405 212.182C706.405 242.859 703.723 272.91 698.581 302.113C699.23 302.287 699.877 302.457 700.523 302.624ZM688.952 299.29C693.871 270.992 696.435 241.887 696.435 212.182C696.435 158.068 687.925 105.942 672.172 57.0689C671.308 56.5396 670.439 56.0234 669.565 55.5201C685.706 104.824 694.435 157.484 694.435 212.182C694.435 241.673 691.897 270.572 687.029 298.672C687.671 298.881 688.312 299.087 688.952 299.29ZM677.696 295.438C682.295 268.373 684.691 240.557 684.691 212.182C684.691 155.143 675.011 100.365 657.205 49.4C656.384 49.0558 655.56 48.7222 654.733 48.399C672.839 99.627 682.691 154.754 682.691 212.182C682.691 240.313 680.327 267.892 675.787 294.731C676.424 294.969 677.06 295.205 677.696 295.438ZM666.513 291.092C670.745 265.416 672.946 239.056 672.946 212.182C672.946 201.444 672.595 190.788 671.903 180.225C671.367 181.215 670.757 182.164 670.077 183.062C670.654 192.695 670.946 202.404 670.946 212.182C670.946 238.785 668.78 264.882 664.615 290.307C665.248 290.571 665.881 290.833 666.513 291.092ZM655.388 286.306C659.215 262.161 661.202 237.403 661.202 212.182C661.202 204.826 661.033 197.509 660.698 190.235C660.058 190.492 659.401 190.721 658.727 190.921C659.043 197.969 659.202 205.057 659.202 212.182C659.202 237.108 657.253 261.578 653.499 285.449C654.128 285.737 654.758 286.022 655.388 286.306ZM627.139 41.6179C627.89 41.6995 628.641 41.7892 629.391 41.887C636.91 61.2145 643.187 81.1626 648.123 101.633C647.389 101.33 646.638 101.065 645.873 100.841C640.919 80.5489 634.642 60.7757 627.139 41.6179ZM644.093 281.009C647.477 258.559 649.232 235.576 649.232 212.182C649.232 205.266 649.078 198.386 648.775 191.544C648.092 191.43 647.418 191.285 646.753 191.109C647.071 198.093 647.232 205.119 647.232 212.182C647.232 235.257 645.517 257.931 642.209 280.085C642.837 280.394 643.465 280.703 644.093 281.009ZM614.01 41.0147C614.727 41.0027 615.444 40.998 616.162 41.0008C623.896 60.1764 630.369 79.9958 635.479 100.356C634.964 100.456 634.448 100.575 633.932 100.713C633.799 100.749 633.666 100.785 633.534 100.824C628.382 80.2996 621.838 60.328 614.01 41.0147ZM633.04 275.421C635.971 254.763 637.487 233.649 637.487 212.182C637.487 203.157 637.219 194.194 636.691 185.301C635.912 184.519 635.189 183.675 634.529 182.775C635.165 192.495 635.487 202.301 635.487 212.182C635.487 233.309 634.012 254.091 631.16 274.431C631.785 274.762 632.412 275.092 633.04 275.421ZM601.699 41.9591C602.384 41.8648 603.07 41.7776 603.756 41.6973C612.289 62.317 619.321 83.7155 624.715 105.757C624.134 106.289 623.584 106.85 623.065 107.437C617.615 84.8909 610.444 63.0159 601.699 41.9591ZM622.002 269.449C624.47 250.71 625.743 231.595 625.743 212.182C625.743 205.113 625.574 198.084 625.24 191.098C624.726 192.305 624.107 193.463 623.39 194.559C623.625 200.404 623.743 206.279 623.743 212.182C623.743 231.232 622.511 249.994 620.123 268.394C620.748 268.747 621.374 269.098 622.002 269.449ZM589.942 44.2937C590.595 44.123 591.249 43.959 591.905 43.8016C608.622 83.5233 619.603 126.252 623.812 170.952C623.128 169.821 622.351 168.764 621.492 167.789C617.068 124.405 606.23 82.9189 589.942 44.2937ZM610.965 263.085C612.968 246.397 613.998 229.41 613.998 212.182C613.998 208.999 613.963 205.824 613.893 202.658C613.25 202.945 612.589 203.203 611.909 203.43C611.969 206.34 611.998 209.258 611.998 212.182C611.998 229.025 611.009 245.636 609.084 261.961C609.166 262.01 609.249 262.059 609.331 262.108C609.874 262.434 610.418 262.76 610.965 263.085ZM578.733 47.9494C579.354 47.7048 579.978 47.4666 580.603 47.235C589.884 69.1098 597.374 91.9279 602.891 115.505C602.141 115.087 601.366 114.712 600.571 114.383C595.111 91.4535 587.775 69.2519 578.733 47.9494ZM599.574 257.341C601.196 242.511 602.028 227.444 602.028 212.182C602.028 209.583 602.004 206.989 601.956 204.401C601.279 204.312 600.61 204.191 599.949 204.041C600.002 206.748 600.028 209.462 600.028 212.182C600.028 227.202 599.218 242.033 597.639 256.634C598.287 256.859 598.932 257.094 599.574 257.341ZM567.876 53.0164C568.465 52.6961 569.056 52.3822 569.65 52.0748C577.92 71.593 584.724 91.8833 589.924 112.808C589.262 112.874 588.599 112.97 587.935 113.098C582.781 92.4021 576.05 72.3298 567.876 53.0164ZM588.1 254.181C589.544 240.379 590.284 226.367 590.284 212.182C590.284 207.751 590.212 203.336 590.068 198.94C589.332 198.282 588.638 197.574 587.992 196.818C588.186 201.916 588.284 207.037 588.284 212.182C588.284 226.264 587.551 240.176 586.12 253.879C586.781 253.969 587.441 254.069 588.1 254.181ZM557.791 59.339C558.347 58.9409 558.906 58.5494 559.468 58.1644C567.401 77.1044 573.916 96.7863 578.878 117.077C578.281 117.521 577.709 117.994 577.163 118.493C572.233 98.1157 565.73 78.3526 557.791 59.339ZM576.37 253.414C577.804 239.866 578.539 226.11 578.539 212.182C578.539 189.587 576.604 167.445 572.89 145.911C571.954 144.279 571.211 142.501 570.701 140.598C569.899 137.606 569.75 134.592 570.166 131.709C565.343 108.89 558.51 86.8129 549.861 65.671C549.332 66.141 548.806 66.6179 548.284 67.1015C566.503 111.88 576.539 160.859 576.539 212.182C576.539 226.151 575.796 239.947 574.346 253.532C575.021 253.48 575.695 253.441 576.37 253.414ZM564.352 255.253C565.966 241.12 566.795 226.748 566.795 212.182C566.795 163.684 557.6 117.334 540.859 74.7802C540.361 75.3542 539.872 75.9328 539.39 76.5159C555.793 118.568 564.795 164.324 564.795 212.182C564.795 226.94 563.939 241.499 562.274 255.81L564.352 255.253ZM551.89 258.593C553.827 243.395 554.825 227.905 554.825 212.182C554.825 167.872 546.897 125.414 532.382 86.1494C532.299 86.2785 532.217 86.4078 532.136 86.5372C531.772 87.1142 531.402 87.6881 531.025 88.2583C545.13 126.911 552.825 168.648 552.825 212.182C552.825 228.1 551.796 243.778 549.801 259.152L551.89 258.593ZM539.596 261.887C541.893 245.649 543.08 229.054 543.08 212.182C543.08 172.031 536.353 133.451 523.965 97.5083C523.46 98.0761 522.946 98.6351 522.424 99.1843C534.519 134.631 541.08 172.64 541.08 212.182C541.08 229.251 539.858 246.035 537.495 262.45L539.596 261.887ZM527.227 265.201C529.932 247.925 531.336 230.217 531.336 212.182C531.336 175.174 525.424 139.548 514.492 106.195C513.928 106.605 513.356 107.003 512.777 107.388C523.525 140.38 529.336 175.603 529.336 212.182C529.336 230.417 527.892 248.315 525.112 265.768L527.227 265.201ZM514.772 268.54C517.94 250.229 519.592 231.398 519.592 212.182C519.592 177.222 514.127 143.539 504.004 111.94C503.383 112.177 502.754 112.399 502.117 112.607C512.166 143.997 517.592 177.456 517.592 212.182C517.592 231.625 515.891 250.672 512.63 269.18C513.338 268.952 514.052 268.739 514.772 268.54ZM501.547 274.181C505.532 254.132 507.621 233.401 507.621 212.182C507.621 178.102 502.231 145.28 492.257 114.524C491.567 114.573 490.877 114.606 490.186 114.623C500.205 145.335 505.621 178.126 505.621 212.182C505.621 233.922 503.414 255.147 499.211 275.644C499.978 275.138 500.757 274.65 501.547 274.181ZM486.649 286.88C492.676 262.979 495.877 237.955 495.877 212.182C495.877 177.724 490.154 144.603 479.607 113.716C478.846 113.572 478.085 113.412 477.327 113.237C488.052 144.241 493.877 177.531 493.877 212.182C493.877 239.416 490.279 265.81 483.531 290.914C484.517 289.524 485.557 288.178 486.649 286.88ZM459.311 330.346C475.27 294.206 484.133 254.229 484.133 212.182C484.133 175.995 477.568 141.341 465.565 109.346C464.7 108.978 463.842 108.595 462.99 108.198C475.357 140.487 482.133 175.543 482.133 212.182C482.133 258.033 471.521 301.405 452.62 339.977C454.886 336.816 457.118 333.601 459.311 330.346ZM413.038 384.944C450.229 337.283 472.388 277.32 472.388 212.182C472.388 173.09 464.407 135.862 449.986 102.039C449.122 101.691 448.251 101.354 447.373 101.03C459.601 129.158 467.33 159.694 469.65 191.73C469.797 192.166 469.93 192.61 470.051 193.06C471.017 196.663 471.036 200.297 470.262 203.698C470.346 206.515 470.388 209.344 470.388 212.182C470.388 280.189 446.061 342.515 405.634 390.931C408.1 389.079 410.57 387.079 413.038 384.944ZM379.624 404.416C428.281 356.75 458.917 290.759 460.364 217.61C459.714 218.015 459.038 218.388 458.339 218.727C456.577 292.004 425.303 357.969 375.948 405.191C377.166 404.989 378.391 404.73 379.624 404.416ZM361.979 404.812C407.026 364.875 437.964 309.38 446.372 246.747C445.666 248.388 444.763 249.94 443.686 251.366C434.355 311.953 403.728 365.514 359.689 404.165C360.438 404.407 361.195 404.621 361.962 404.807C361.968 404.809 361.973 404.81 361.979 404.812ZM418.302 95.0869C419.075 95.1245 419.849 95.1714 420.624 95.2277C433.441 120.305 442.264 147.763 446.256 176.762C445.598 176.835 444.939 176.937 444.279 177.07C440.265 147.879 431.316 120.262 418.302 95.0869ZM350.29 399.407C391.933 364.016 421.618 314.978 432.432 259.205C432.206 259.273 431.978 259.338 431.749 259.4C431.263 259.53 430.776 259.643 430.289 259.739C419.386 314.836 389.902 363.252 348.64 398.184C349.184 398.608 349.734 399.016 350.29 399.407ZM405.134 95.3453C405.862 95.2814 406.591 95.2256 407.321 95.178C421.276 120.884 430.775 149.36 434.783 179.569L433.399 179.94L432.155 175.301C427.814 146.714 418.504 119.76 405.134 95.3453ZM341.573 391.396C381.188 358.15 409.62 312.011 420.408 259.438C419.758 259.268 419.118 259.068 418.488 258.84C407.823 311.044 379.613 356.861 340.288 389.864C340.712 390.386 341.14 390.897 341.573 391.396ZM392.735 97.2423C393.419 97.0924 394.106 96.9496 394.794 96.8142C405.187 115.104 413.185 134.933 418.361 155.874C417.62 155.547 416.86 155.261 416.084 155.017C410.891 134.536 402.972 115.141 392.735 97.2423ZM334.535 381.673C372.838 349.278 400.012 304.133 409.508 252.788C408.917 252.13 408.364 251.434 407.852 250.702C398.755 302.184 371.747 347.484 333.494 379.934C333.838 380.522 334.184 381.102 334.535 381.673ZM380.857 100.629C381.499 100.402 382.143 100.182 382.79 99.9687C392.675 116.799 400.405 135.048 405.599 154.337C404.969 154.448 404.339 154.588 403.71 154.757C403.688 154.763 403.667 154.768 403.645 154.774C398.462 135.556 390.738 117.38 380.857 100.629ZM328.867 371.066C368.009 337.153 394.492 289.017 400.278 234.697L398.206 235.252C392.331 288.537 366.342 335.762 327.998 369.171C328.284 369.809 328.574 370.44 328.867 371.066ZM369.922 105.223C370.524 104.928 371.128 104.639 371.735 104.356C381.904 121.334 389.744 139.866 394.815 159.511C394.235 160.022 393.683 160.561 393.162 161.126C388.136 141.193 380.233 122.402 369.922 105.223ZM324.103 359.603C358.492 328.611 381.982 285.758 388.127 237.489C387.45 237.53 386.776 237.539 386.107 237.518C380.004 284.903 357.013 326.997 323.366 357.572C323.609 358.254 323.854 358.931 324.103 359.603ZM359.679 110.982C360.242 110.623 360.807 110.269 361.376 109.921C376.081 134.322 385.683 162.147 388.704 191.916L386.746 192.441C383.794 162.863 374.279 135.218 359.679 110.982ZM320.046 347.352C350.547 318.299 371.227 279.028 376.597 235.029C375.952 234.693 375.324 234.326 374.714 233.93C369.609 277.442 349.376 316.328 319.416 345.186C319.624 345.912 319.834 346.634 320.046 347.352ZM350.114 117.872C350.638 117.449 351.165 117.031 351.696 116.619C365.682 140.039 374.683 166.78 377.235 195.377C376.575 195.692 375.935 196.038 375.318 196.413C372.906 167.893 364.011 141.22 350.114 117.872ZM316.508 334.019C344.971 304.78 363.278 265.604 365.729 222.188C365.614 221.83 365.507 221.467 365.408 221.099C364.192 216.56 364.477 211.973 365.959 207.864C365.224 177.579 356.782 149.206 342.519 124.629C342.026 125.111 341.538 125.598 341.053 126.09C355.657 151.433 364.011 180.832 364.011 212.182C364.011 258.564 345.725 300.675 315.968 331.699C316.145 332.475 316.325 333.249 316.508 334.019ZM313.533 319.957C338.884 291.234 354.267 253.505 354.267 212.182C354.267 183.754 346.987 157.027 334.189 133.762C333.733 134.323 333.282 134.889 332.837 135.459C345.228 158.266 352.267 184.402 352.267 212.182C352.267 252.43 337.492 289.227 313.071 317.446C313.222 318.286 313.376 319.123 313.533 319.957ZM310.998 304.6C330.762 279.045 342.523 246.987 342.523 212.182C342.523 187.824 336.762 164.811 326.53 144.432C326.112 145.096 325.699 145.765 325.294 146.439C335.046 166.273 340.523 188.588 340.523 212.182C340.523 245.82 329.39 276.859 310.608 301.813C310.735 302.744 310.865 303.673 310.998 304.6ZM308.883 287.228C322.743 265.562 330.778 239.81 330.778 212.182C330.778 192.694 326.781 174.14 319.561 157.294C319.18 158.124 318.808 158.96 318.445 159.803C325.105 175.946 328.778 193.635 328.778 212.182C328.778 238.491 321.386 263.074 308.566 283.966C308.668 285.054 308.773 286.141 308.883 287.228ZM307.214 265.374C314.657 249.185 318.808 231.168 318.808 212.182C318.808 199.159 316.855 186.592 313.226 174.758C312.948 175.78 312.682 176.81 312.431 177.846C312.372 178.087 312.314 178.33 312.256 178.574C315.223 189.27 316.808 200.541 316.808 212.182C316.808 229.459 313.316 245.92 307 260.899C307.064 262.387 307.135 263.879 307.214 265.374ZM446.207 227.743C446.316 225.94 446.405 224.131 446.476 222.318L448.498 221.776C448.35 225.816 448.109 229.831 447.777 233.82C447.677 233.3 447.557 232.78 447.418 232.26L446.207 227.743ZM456.248 177.979C452.574 149.237 444.332 121.923 432.273 96.7889C433.093 96.9498 433.914 97.1216 434.734 97.3044C446.687 122.586 454.817 150.029 458.378 178.887C457.686 178.548 456.975 178.245 456.248 177.979ZM584.281 155.597C584.989 160.558 585.606 165.548 586.129 170.566C586.659 169.729 587.245 168.927 587.883 168.166C587.447 164.185 586.951 160.223 586.398 156.278C585.68 156.086 584.974 155.858 584.281 155.597ZM596.284 156.625C596.514 158.321 596.734 160.02 596.944 161.722C597.573 161.482 598.219 161.269 598.881 161.085C598.676 159.439 598.462 157.796 598.239 156.156C598.107 156.194 597.974 156.231 597.841 156.267C597.322 156.406 596.803 156.525 596.284 156.625ZM607.547 150.762C608.026 154.039 608.468 157.328 608.871 160.629C609.572 160.759 610.264 160.923 610.945 161.118C610.451 157.014 609.898 152.927 609.287 148.859C608.745 149.525 608.165 150.16 607.547 150.762ZM629.981 142.048C630.927 148.007 631.753 154.006 632.459 160.042C632.943 159.042 633.501 158.079 634.128 157.162C633.543 152.406 632.884 147.673 632.15 142.964C631.411 142.697 630.687 142.391 629.981 142.048ZM642.188 144.136C642.461 145.963 642.724 147.793 642.975 149.627C643.594 149.337 644.232 149.073 644.886 148.837C644.654 147.161 644.413 145.487 644.163 143.816C643.504 143.953 642.845 144.06 642.188 144.136ZM653.571 139.379C654 142.126 654.406 144.88 654.787 147.643C655.482 147.718 656.17 147.825 656.85 147.965C656.385 144.559 655.883 141.165 655.345 137.783C654.785 138.345 654.193 138.878 653.571 139.379ZM667.371 153.327C662.721 115.32 653.624 78.6871 640.617 43.9638C641.405 44.1532 642.19 44.3516 642.974 44.5591C656.083 79.8645 665.17 117.124 669.679 155.782C668.97 154.902 668.198 154.082 667.371 153.327Z" fill="#5AC8FA"/>
<path fill-rule="evenodd" clip-rule="evenodd" d="M310.147 180.161C296.178 237.664 305.095 393.862 359.678 407.122C396.922 416.169 445.804 356.326 477.538 299.125C485.169 285.37 497.689 274.818 512.883 270.747L562.249 257.52C577.443 253.448 593.561 256.326 607.047 264.423C663.131 298.094 735.384 325.478 763.115 299.021C803.755 260.246 733.38 120.517 692.53 77.7017C651.679 34.8828 585.619 31.607 544.978 70.378C539.075 76.0109 534.033 82.2206 529.852 88.8519C522.182 101.016 511.641 111.818 497.75 115.54C483.86 119.262 469.33 115.178 456.605 108.478C449.668 104.826 442.197 101.969 434.269 100.042C379.687 86.7862 324.115 122.653 310.147 180.161ZM401.426 157.071C389.605 160.239 382.59 172.39 385.757 184.211L388.307 193.725L378.794 196.274C366.972 199.442 359.957 211.593 363.125 223.414C366.292 235.235 378.443 242.25 390.264 239.083L399.777 236.534L402.326 246.045C405.493 257.867 417.644 264.882 429.465 261.714C441.286 258.547 448.302 246.396 445.134 234.575L442.586 225.063L452.099 222.514C463.92 219.347 470.935 207.196 467.768 195.375C464.6 183.554 452.449 176.538 440.628 179.706L431.115 182.255L428.566 172.74C425.398 160.919 413.247 153.904 401.426 157.071ZM658.788 118.696C661.956 130.518 654.941 142.668 643.119 145.836C631.298 149.003 619.147 141.988 615.98 130.167C612.812 118.346 619.828 106.195 631.649 103.027C643.47 99.86 655.621 106.875 658.788 118.696ZM611.226 131.442C614.393 143.263 607.378 155.414 595.557 158.582C583.736 161.749 571.585 154.734 568.418 142.913C565.25 131.091 572.265 118.941 584.087 115.773C595.908 112.606 608.059 119.621 611.226 131.442ZM608.299 206.144C620.12 202.977 627.136 190.826 623.968 179.005C620.801 167.184 608.65 160.168 596.829 163.336C585.007 166.503 577.992 178.654 581.16 190.475C584.327 202.297 596.478 209.312 608.299 206.144ZM671.534 166.26C674.701 178.081 667.686 190.232 655.865 193.399C644.044 196.567 631.893 189.551 628.725 177.73C625.558 165.909 632.573 153.758 644.394 150.591C656.216 147.423 668.366 154.438 671.534 166.26Z" fill="url(#paint0_radial)"/>
<path fill-rule="evenodd" clip-rule="evenodd" d="M310.147 180.161C296.178 237.664 305.095 393.862 359.678 407.122C396.922 416.169 445.804 356.326 477.538 299.125C485.169 285.37 497.689 274.818 512.883 270.747L562.249 257.52C577.443 253.448 593.561 256.326 607.047 264.423C663.131 298.094 735.384 325.478 763.115 299.021C803.755 260.246 733.38 120.517 692.53 77.7017C651.679 34.8828 585.619 31.607 544.978 70.378C539.075 76.0109 534.033 82.2206 529.852 88.8519C522.182 101.016 511.641 111.818 497.75 115.54C483.86 119.262 469.33 115.178 456.605 108.478C449.668 104.826 442.197 101.969 434.269 100.042C379.687 86.7862 324.115 122.653 310.147 180.161ZM401.426 157.071C389.605 160.239 382.59 172.39 385.757 184.211L388.307 193.725L378.794 196.274C366.972 199.442 359.957 211.593 363.125 223.414C366.292 235.235 378.443 242.25 390.264 239.083L399.777 236.534L402.326 246.045C405.493 257.867 417.644 264.882 429.465 261.714C441.286 258.547 448.302 246.396 445.134 234.575L442.586 225.063L452.099 222.514C463.92 219.347 470.935 207.196 467.768 195.375C464.6 183.554 452.449 176.538 440.628 179.706L431.115 182.255L428.566 172.74C425.398 160.919 413.247 153.904 401.426 157.071ZM658.788 118.696C661.956 130.518 654.941 142.668 643.119 145.836C631.298 149.003 619.147 141.988 615.98 130.167C612.812 118.346 619.828 106.195 631.649 103.027C643.47 99.86 655.621 106.875 658.788 118.696ZM611.226 131.442C614.393 143.263 607.378 155.414 595.557 158.582C583.736 161.749 571.585 154.734 568.418 142.913C565.25 131.091 572.265 118.941 584.087 115.773C595.908 112.606 608.059 119.621 611.226 131.442ZM608.299 206.144C620.12 202.977 627.136 190.826 623.968 179.005C620.801 167.184 608.65 160.168 596.829 163.336C585.007 166.503 577.992 178.654 581.16 190.475C584.327 202.297 596.478 209.312 608.299 206.144ZM671.534 166.26C674.701 178.081 667.686 190.232 655.865 193.399C644.044 196.567 631.893 189.551 628.725 177.73C625.558 165.909 632.573 153.758 644.394 150.591C656.216 147.423 668.366 154.438 671.534 166.26Z" fill="url(#paint1_radial)"/>
<circle cx="259.5" cy="172.5" r="22.5" fill="url(#paint2_linear)"/>
<circle cx="214.221" cy="325.221" r="65.5" transform="rotate(-15 214.221 325.221)" fill="url(#paint3_linear)"/>
<path fill-rule="evenodd" clip-rule="evenodd" d="M198.896 394.557C233.071 379.695 263.559 357.946 288.607 331.061C288.697 330.009 288.764 328.954 288.807 327.895C263.092 356.007 231.443 378.599 195.843 393.691C196.853 394.001 197.871 394.29 198.896 394.557ZM217.441 396.858C242.164 384.356 264.774 368.283 284.594 349.317C284.056 350.806 283.469 352.275 282.836 353.722C264.684 370.569 244.303 385.047 222.184 396.664C220.598 396.782 219.016 396.846 217.441 396.858ZM183.014 388.341C224.078 372.75 260.115 346.95 288.027 314.042C287.894 313.184 287.746 312.325 287.581 311.466C259.385 345.154 222.66 371.46 180.728 387.064C181.482 387.503 182.244 387.929 183.014 388.341ZM170.927 380.209C216.108 364.817 255.366 336.628 284.382 299.962C284.113 299.233 283.833 298.51 283.543 297.795C254.455 334.918 214.827 363.386 169.162 378.694C169.743 379.209 170.331 379.714 170.927 380.209ZM161.606 370.897C208.844 356.116 249.637 326.753 278.715 288.081C278.347 287.464 277.971 286.854 277.587 286.251C248.574 325.109 207.664 354.565 160.255 369.222C160.698 369.788 161.148 370.346 161.606 370.897ZM154.445 360.559C202.007 346.559 242.928 317.054 271.358 277.893C270.911 277.377 270.457 276.867 269.996 276.364C241.728 315.465 200.914 344.899 153.457 358.764C153.779 359.368 154.108 359.966 154.445 360.559ZM149.443 349.778C195.777 336.561 235.574 307.841 262.868 269.585C262.353 269.158 261.833 268.739 261.307 268.328C234.249 306.3 194.76 334.799 148.779 347.887C148.992 348.522 149.214 349.152 149.443 349.778ZM146.299 338.458C189.975 325.979 227.494 298.906 253.244 262.851C252.665 262.512 252.081 262.182 251.494 261.86C226.046 297.412 189.029 324.119 145.946 336.479C146.054 337.138 146.172 337.798 146.299 338.458ZM145.021 326.595C184.605 314.812 218.685 290.251 242.479 257.695C241.83 257.448 241.178 257.211 240.521 256.982C217.11 288.806 183.737 312.849 145.001 324.512C144.997 325.205 145.004 325.899 145.021 326.595ZM145.867 313.79C179.647 302.779 208.902 281.751 230.125 254.214C229.383 254.075 228.638 253.948 227.89 253.832C207.178 280.37 178.879 300.698 146.255 311.556C146.114 312.298 145.985 313.042 145.867 313.79ZM149.441 300.079C175.473 290.208 198.317 273.859 216.007 253C215.105 253.012 214.201 253.042 213.296 253.088C196.384 272.583 174.862 287.97 150.427 297.554C150.083 298.389 149.754 299.231 149.441 300.079ZM158.132 283.521C172.72 276.372 185.988 266.941 197.471 255.695C196.005 256.106 194.563 256.561 193.145 257.056C183.483 266.022 172.632 273.724 160.853 279.898C159.908 281.078 159 282.286 158.132 283.521Z" fill="#4CD964"/>
<defs>
<radialGradient id="paint0_radial" cx="0" cy="0" r="1" gradientUnits="userSpaceOnUse" gradientTransform="translate(386.033 353) rotate(-95.0199) scale(371.425)">
<stop stop-color="#3DB0F0"/>
<stop offset="0.782422" stop-color="#1DA3EF" stop-opacity="0"/>
</radialGradient>
<radialGradient id="paint1_radial" cx="0" cy="0" r="1" gradientUnits="userSpaceOnUse" gradientTransform="translate(784.033 241.5) rotate(-163.257) scale(637.477)">
<stop stop-color="#3DF0B0"/>
<stop offset="0.502144" stop-color="#1DEFA3" stop-opacity="0"/>
</radialGradient>
<linearGradient id="paint2_linear" x1="259" y1="217.5" x2="205.688" y2="132.226" gradientUnits="userSpaceOnUse">
<stop stop-color="#3DB0F0"/>
<stop offset="0.653156" stop-color="#1DA3EF" stop-opacity="0"/>
</linearGradient>
<linearGradient id="paint3_linear" x1="242.832" y1="613.173" x2="14.9291" y2="231.152" gradientUnits="userSpaceOnUse">
<stop offset="0.359755" stop-color="#3DB0F0"/>
<stop offset="0.779583" stop-color="#1DA3EF" stop-opacity="0"/>
</linearGradient>
</defs>
</svg>
