<svg width="603" height="402" viewBox="0 0 603 402" fill="none" xmlns="http://www.w3.org/2000/svg">
<path fill-rule="evenodd" clip-rule="evenodd" d="M233.42 159.64L234.154 158.908L237.051 160.564L312.156 117.645C312.452 117.856 312.745 118.072 313.035 118.294L237.299 161.574L237.051 161.715L236.803 161.574L233.42 159.64ZM226.267 166.774L227.001 166.042L237.051 171.785L319.301 124.783C319.494 125.055 319.683 125.331 319.868 125.611L237.299 172.795L237.051 172.937L236.803 172.795L226.267 166.774ZM219.113 173.907L219.847 173.175L237.051 183.006L323.612 133.541C323.712 133.867 323.809 134.196 323.9 134.528L237.299 184.016L237.051 184.158L236.803 184.016L219.113 173.907ZM211.959 181.041L212.694 180.309L237.051 194.228L326.252 143.254L326.521 144.252L237.299 195.238L237.051 195.38L236.803 195.238L211.959 181.041ZM204.806 188.174L205.54 187.442L237.051 205.449L257.999 193.479L257.68 194.812L237.299 206.459L237.051 206.601L236.803 206.459L204.806 188.174ZM197.652 195.308L198.387 194.575L237.051 216.671L254.895 206.474L254.576 207.808L237.299 217.681L237.051 217.822L236.803 217.681L197.652 195.308ZM190.499 202.441L191.233 201.709L237.051 227.892L251.79 219.47L251.471 220.803L237.299 228.902L237.051 229.044L236.803 228.902L190.499 202.441ZM183.345 209.574L184.079 208.842L237.051 239.113L248.686 232.465L248.367 233.799L237.299 240.123L237.051 240.265L236.803 240.123L183.345 209.574ZM176.192 216.708L176.926 215.976L237.051 250.335L245.581 245.46L245.262 246.794L237.299 251.345L237.051 251.487L236.803 251.345L176.192 216.708ZM169.038 223.841L169.772 223.109L237.051 261.556L242.534 258.423C242.465 258.839 242.411 259.254 242.371 259.668L237.299 262.566L237.051 262.708L236.803 262.566L169.038 223.841ZM161.884 230.975L162.619 230.243L237.051 272.778L243.833 268.902C243.966 269.209 244.107 269.513 244.257 269.812L237.299 273.788L237.051 273.929L236.803 273.788L161.884 230.975ZM154.731 238.108L155.465 237.376L237.051 283.999L249.983 276.609C250.28 276.827 250.585 277.037 250.897 277.239L237.299 285.009L237.051 285.151L236.803 285.009L154.731 238.108ZM147.577 245.242L148.312 244.509L237.051 295.22L263.483 280.116C264.588 279.977 265.672 279.742 266.724 279.416L237.299 296.23L237.051 296.372L236.803 296.23L147.577 245.242ZM127.026 265.735L129.732 263.037L145.166 254.217L145.414 254.075L145.663 254.217L234.072 304.739C233.829 304.981 233.592 305.23 233.363 305.486L145.414 255.227L127.026 265.735ZM104.422 289.874C104.761 289.275 105.122 288.685 105.506 288.102L145.166 265.438L145.414 265.297L145.663 265.438L229.383 313.281C229.307 313.628 229.242 313.975 229.188 314.322L145.414 266.448L104.422 289.874ZM100.557 303.304C100.576 302.905 100.603 302.505 100.637 302.106L145.166 276.66L145.414 276.518L145.663 276.66L231.311 325.604C231.683 326.249 232.096 326.87 232.548 327.463L145.414 277.67L100.557 303.304ZM101.861 313.78C101.761 313.452 101.667 313.121 101.579 312.789L145.166 287.881L145.414 287.739L145.663 287.881L237.051 340.106L247.57 334.095C248.574 334.003 249.561 333.823 250.522 333.56L237.299 341.116L237.051 341.258L236.803 341.116L145.414 288.891L101.861 313.78ZM106.111 322.573C105.92 322.298 105.734 322.021 105.552 321.741L145.166 299.103L145.414 298.961L145.663 299.103L237.051 351.327L328.44 299.103L328.688 298.961L328.936 299.103L375.402 325.655L375.769 327.017L328.688 300.113L237.299 352.337L237.051 352.479L236.803 352.337L145.414 300.113L106.111 322.573ZM113.153 329.77C112.859 329.556 112.57 329.337 112.285 329.114L145.166 310.324L145.414 310.182L145.663 310.324L237.051 362.549L328.44 310.324L328.688 310.182L328.936 310.324L378.976 338.919L379.343 340.281L328.688 311.334L237.299 363.559L237.051 363.7L236.803 363.559L145.414 311.334L113.153 329.77ZM123.995 334.796L123.44 334.647C123.17 334.575 122.902 334.499 122.636 334.421L145.166 321.545L145.414 321.404L145.663 321.545L208.449 357.425L204.654 356.408L145.414 322.555L123.995 334.796ZM137.363 338.378L135.991 338.01L145.166 332.767L145.414 332.625L145.663 332.767L171.477 347.518L167.682 346.502L145.414 333.777L137.363 338.378ZM275.502 375.392L274.13 375.024L328.44 343.988L328.688 343.846L328.936 343.988L383.06 374.917C382.945 375.235 382.826 375.551 382.701 375.864L328.688 344.998L275.502 375.392ZM288.87 378.974L287.498 378.606L328.44 355.209L328.688 355.068L328.936 355.209L378.343 383.443C378.135 383.709 377.923 383.972 377.707 384.231L328.688 356.219L288.87 378.974ZM302.238 382.556L300.866 382.188L328.44 366.431L328.688 366.289L328.936 366.431L370.817 390.364C370.501 390.571 370.181 390.772 369.857 390.967L328.688 367.441L302.238 382.556ZM315.607 386.138L314.235 385.77L328.44 377.652L328.688 377.511L328.936 377.652L359.187 394.939C358.653 395.03 358.115 395.106 357.572 395.168L328.688 378.662L315.607 386.138ZM331.69 390.448L327.603 389.352L328.44 388.874L328.688 388.732L328.936 388.874L331.69 390.448ZM384.815 365.851L328.688 333.777L262.134 371.81L260.762 371.442L328.44 332.767L328.688 332.625L328.936 332.767L384.835 364.71C384.836 365.092 384.829 365.472 384.815 365.851ZM382.55 352.183L382.917 353.544L328.688 322.555L248.765 368.228L247.393 367.86L328.44 321.545L328.688 321.404L328.936 321.545L382.55 352.183ZM371.828 312.392L372.195 313.753L328.688 288.891L258.028 329.27C258.747 328.573 259.408 327.812 260.001 326.991L328.44 287.881L328.688 287.739L328.936 287.881L371.828 312.392ZM368.254 299.128L368.62 300.489L328.688 277.67L263.166 315.113C263.128 314.755 263.079 314.399 263.019 314.045L328.44 276.66L328.688 276.518L328.936 276.66L368.254 299.128ZM364.68 285.864L365.046 287.225L328.688 266.448L259.416 306.035C259.203 305.77 258.983 305.512 258.754 305.261L328.44 265.438L328.688 265.297L328.936 265.438L364.68 285.864ZM361.106 272.6L361.472 273.962L328.688 255.227L250.081 300.147C249.576 300.028 249.07 299.933 248.565 299.862L328.44 254.217L328.688 254.075L328.936 254.217L361.106 272.6ZM357.531 259.336L357.898 260.698L328.688 244.006L273.829 275.356C274.641 274.617 275.392 273.804 276.07 272.923L328.44 242.996L328.688 242.854L328.936 242.996L357.531 259.336ZM353.957 246.073L354.324 247.434L328.688 232.784L281.277 259.878L281.698 258.485L328.44 231.774L328.688 231.633L328.936 231.774L353.957 246.073ZM350.383 232.809L350.75 234.17L328.688 221.563L285.379 246.312L285.8 244.92L328.44 220.553L328.688 220.411L328.936 220.553L350.383 232.809ZM346.809 219.545L347.176 220.906L328.688 210.341L289.481 232.747L289.902 231.354L328.44 209.331L328.688 209.19L328.936 209.331L346.809 219.545ZM343.235 206.281L343.602 207.643L328.688 199.12L293.583 219.181L294.004 217.789L328.44 198.11L328.688 197.968L328.936 198.11L343.235 206.281ZM339.661 193.017L340.028 194.379L328.688 187.899L297.686 205.615L298.107 204.223L328.44 186.889L328.688 186.747L328.936 186.889L339.661 193.017ZM336.087 179.754L336.454 181.115L328.688 176.677L299.141 193.563C299.084 193.214 299.018 192.867 298.944 192.523L328.44 175.667L328.688 175.526L328.936 175.667L336.087 179.754ZM332.513 166.49L332.88 167.851L328.688 165.456L295.319 184.525C295.119 184.255 294.912 183.989 294.698 183.728L328.44 164.446L328.688 164.304L328.936 164.446L332.513 166.49ZM328.939 153.226L329.306 154.587L328.688 154.235L287.181 177.954C286.799 177.782 286.41 177.62 286.014 177.469L328.44 153.225L328.688 153.083L328.936 153.225L328.939 153.226ZM302.571 113.052L250.03 143.078L252.735 140.38L301.186 112.692C301.65 112.802 302.112 112.922 302.571 113.052Z" fill="#FF3B30"/>
<path fill-rule="evenodd" clip-rule="evenodd" d="M323.634 134.244C317.467 111.356 288.776 103.669 271.991 120.407L109.25 282.69C92.4644 299.428 100.174 328.038 123.126 334.188L345.664 393.817C368.616 399.967 389.598 379.045 383.43 356.157L323.634 134.244ZM283.649 176.347C295.002 179.39 301.594 191.192 298.203 202.407L278.831 266.469C275.897 276.171 265.767 281.786 255.945 279.154C246.091 276.514 240.124 266.533 242.486 256.642L258.037 191.547C260.751 180.188 272.332 173.315 283.649 176.347ZM250.273 299.816C259.622 302.321 265.001 312.203 262.209 321.438C259.541 330.262 250.28 335.521 241.347 333.128C232.384 330.726 226.994 321.492 229.143 312.497C231.378 303.143 240.954 297.319 250.273 299.816Z" fill="url(#paint0_radial)"/>
<path fill-rule="evenodd" clip-rule="evenodd" d="M323.634 134.244C317.467 111.356 288.776 103.669 271.991 120.407L109.25 282.69C92.4644 299.428 100.174 328.038 123.126 334.188L345.664 393.817C368.616 399.967 389.598 379.045 383.43 356.157L323.634 134.244ZM283.649 176.347C295.002 179.39 301.594 191.192 298.203 202.407L278.831 266.469C275.897 276.171 265.767 281.786 255.945 279.154C246.091 276.514 240.124 266.533 242.486 256.642L258.037 191.547C260.751 180.188 272.332 173.315 283.649 176.347ZM250.273 299.816C259.622 302.321 265.001 312.203 262.209 321.438C259.541 330.262 250.28 335.521 241.347 333.128C232.384 330.726 226.994 321.492 229.143 312.497C231.378 303.143 240.954 297.319 250.273 299.816Z" fill="url(#paint1_radial)"/>
<path d="M444.093 204.426C431.899 216.585 411.057 211.001 406.577 194.374L363.139 33.1701C358.659 16.5434 373.901 1.34463 390.574 5.81228L552.232 49.1285C568.906 53.5961 574.506 74.3795 562.313 86.5385L444.093 204.426Z" fill="url(#paint2_radial)"/>
<path d="M80.4813 183.498C72.5782 191.379 59.0696 187.76 56.1658 176.983L28.0116 72.4992C25.1078 61.7227 34.9866 51.8716 45.7935 54.7673L150.572 82.8426C161.379 85.7383 165.008 99.2089 157.105 107.09L80.4813 183.498Z" fill="url(#paint3_radial)"/>
<path d="M460.493 378.33C457.491 381.323 452.359 379.948 451.256 375.855L440.562 336.166C439.459 332.072 443.211 328.33 447.316 329.43L487.117 340.095C491.222 341.195 492.601 346.312 489.599 349.305L460.493 378.33Z" fill="url(#paint4_radial)"/>
<path fill-rule="evenodd" clip-rule="evenodd" d="M51.3578 67.4818C51.8573 67.3617 52.3664 67.2678 52.8835 67.2019L101.467 94.965L120.361 84.168L121.733 84.5357L101.715 95.975L101.467 96.1168L101.219 95.975L51.3578 67.4818ZM42.5803 73.6872C42.7641 73.4069 42.9575 73.1332 43.1598 72.8666L101.467 106.186L133.729 87.75L135.101 88.1177L101.715 107.196L101.467 107.338L101.219 107.196L42.5803 73.6872ZM40.3941 83.6593C40.332 83.2476 40.2881 82.8383 40.2617 82.4319L101.467 117.408L147.097 91.332L148.469 91.6997L101.715 118.418L101.467 118.56L101.219 118.418L40.3941 83.6593ZM43.8505 96.8559L43.4836 95.4944L101.467 128.629L160.465 94.9141L161.837 95.2817L101.715 129.639L101.467 129.781L101.219 129.639L43.8505 96.8559ZM47.4245 110.12L47.0577 108.758L101.467 139.851L170.659 100.31C170.877 100.569 171.085 100.834 171.283 101.105L101.715 140.861L101.467 141.002L101.219 140.861L47.4245 110.12ZM50.9986 123.383L50.6317 122.022L101.467 151.072L174.094 109.568C174.099 109.958 174.088 110.349 174.062 110.739L101.715 152.082L101.467 152.224L101.219 152.082L50.9986 123.383ZM54.5726 136.647L54.2058 135.286L101.467 162.293L162.089 127.65L159.384 130.348L101.715 163.303L101.467 163.445L101.219 163.303L54.5726 136.647ZM58.1467 149.911L57.7798 148.55L101.467 173.515L135.731 153.934L133.026 156.632L101.715 174.525L101.467 174.667L101.219 174.525L58.1467 149.911ZM61.7207 163.175L61.3539 161.813L101.467 184.736L109.373 180.218L106.668 182.916L101.715 185.746L101.467 185.888L101.219 185.746L61.7207 163.175ZM65.2948 176.439L64.9279 175.077L96.4589 193.096L95.7247 193.828L65.2948 176.439ZM68.8688 189.702L68.502 188.341L88.2157 199.607C87.7966 199.769 87.3726 199.911 86.945 200.032L68.8688 189.702ZM108.364 80.9537L101.715 84.7536L101.467 84.8954L101.219 84.7536L82.3897 73.9937L86.1845 75.0106L101.467 83.7437L106.992 80.586L108.364 80.9537Z" fill="#007AFF"/>
<path fill-rule="evenodd" clip-rule="evenodd" d="M413.773 11.6417C414.669 11.72 415.573 11.8513 416.483 12.0382L482.662 49.8569L506.644 36.1526L508.016 36.5203L482.91 50.8669L482.662 51.0087L482.414 50.8669L413.773 11.6417ZM399.852 14.9076C400.182 14.7069 400.516 14.5143 400.856 14.3298L482.662 61.0783L520.012 39.7346L521.384 40.1023L482.91 62.0883L482.662 62.2301L482.414 62.0883L399.852 14.9076ZM392.52 21.9391C392.706 21.6606 392.898 21.3862 393.095 21.1161L482.662 72.2997L533.38 43.3166L534.752 43.6843L482.91 73.3097L482.662 73.4514L482.414 73.3097L392.52 21.9391ZM388.682 33.6457C388.698 33.2436 388.726 32.8441 388.763 32.4472L390.777 31.2964L391.025 31.1546L391.273 31.2964L482.662 83.5211L546.748 46.8987L548.121 47.2663L482.91 84.5311L482.662 84.6728L482.414 84.5311L391.025 32.3064L388.682 33.6457ZM390.348 43.9145L390.079 42.9165L390.777 42.5177L391.025 42.376L391.273 42.5177L482.662 94.7425L560.117 50.4807L561.489 50.8483L482.91 95.7525L482.662 95.8942L482.414 95.7525L391.025 43.5277L390.348 43.9145ZM393.676 56.2639L393.309 54.9025L482.662 105.964L573.485 54.0627L576.551 54.8843L599.357 67.9165C599.67 68.4555 599.961 69.0062 600.229 69.567L574.299 54.7491L482.91 106.974L482.662 107.116L482.414 106.974L393.676 56.2639ZM397.25 69.5278L396.883 68.1663L482.662 117.185L574.051 64.9605L574.299 64.8188L574.547 64.9605L602.505 80.9372C602.486 81.3051 602.457 81.673 602.42 82.0404L574.299 65.9705L482.91 118.195L482.662 118.337L482.414 118.195L397.25 69.5278ZM400.824 82.7916L400.457 81.4301L482.662 128.407L574.051 76.1819L574.299 76.0402L574.547 76.1819L599.776 90.5991C599.617 90.8905 599.451 91.1796 599.278 91.4663L574.299 77.1919L482.91 129.417L482.662 129.558L482.414 129.417L400.824 82.7916ZM404.398 96.0554L404.031 94.694L482.662 139.628L574.051 87.4033L574.299 87.2615L574.547 87.4033L593.477 98.2209L592.743 98.9531L574.299 88.4133L482.91 140.638L482.662 140.78L482.414 140.638L404.398 96.0554ZM407.972 109.319L407.605 107.958L482.662 150.849L574.051 98.6247L574.299 98.4829L574.547 98.6247L586.324 105.354L585.589 106.087L574.299 99.6347L482.91 151.859L482.662 152.001L482.414 151.859L407.972 109.319ZM411.546 122.583L411.18 121.222L482.662 162.071L574.051 109.846L574.299 109.704L574.547 109.846L579.17 112.488L578.436 113.22L574.299 110.856L482.91 163.081L482.662 163.223L482.414 163.081L411.546 122.583ZM415.12 135.847L414.754 134.485L482.662 173.292L565.889 125.732L563.183 128.43L482.91 174.302L482.662 174.444L482.414 174.302L415.12 135.847ZM418.694 149.111L418.328 147.749L482.662 184.514L539.531 152.016L536.825 154.714L482.91 185.524L482.662 185.665L482.414 185.524L418.694 149.111ZM422.268 162.374L421.902 161.013L482.662 195.735L513.173 178.3L510.467 180.997L482.91 196.745L482.662 196.887L482.414 196.745L422.268 162.374ZM425.843 175.638L425.476 174.277L482.662 206.956L486.815 204.583L484.109 207.281L482.91 207.966L482.662 208.108L482.414 207.966L425.843 175.638ZM429.417 188.902L429.05 187.541L476.636 214.734L475.901 215.466L429.417 188.902ZM432.991 202.166L432.624 200.804L468.885 221.526C468.553 221.728 468.217 221.92 467.878 222.102L432.991 202.166ZM439.638 217.186C439.033 216.517 438.463 215.808 437.933 215.06L454.852 224.728C453.929 224.643 453.012 224.503 452.106 224.311L439.638 217.186ZM494.647 32.9382L482.91 39.6455L482.662 39.7873L482.414 39.6455L449.515 20.845L453.31 21.8618L482.662 38.6355L493.275 32.5706L494.647 32.9382Z" fill="#FF3B30"/>
<defs>
<radialGradient id="paint0_radial" cx="0" cy="0" r="1" gradientUnits="userSpaceOnUse" gradientTransform="translate(56.7664 320.711) rotate(-17.0987) scale(433.786 309.209)">
<stop stop-color="#3DB0F0"/>
<stop offset="0.782422" stop-color="#1DA3EF" stop-opacity="0"/>
</radialGradient>
<radialGradient id="paint1_radial" cx="0" cy="0" r="1" gradientUnits="userSpaceOnUse" gradientTransform="translate(367.714 396.305) rotate(-125.442) scale(419.809 465.435)">
<stop stop-color="#F03D3D"/>
<stop offset="0.557946" stop-color="#EF4F1D" stop-opacity="0"/>
</radialGradient>
<radialGradient id="paint2_radial" cx="0" cy="0" r="1" gradientUnits="userSpaceOnUse" gradientTransform="translate(574.09 147.593) rotate(-165.705) scale(288.658 205.76)">
<stop stop-color="#3DB0F0"/>
<stop offset="0.782422" stop-color="#1DA3EF" stop-opacity="0"/>
</radialGradient>
<radialGradient id="paint3_radial" cx="0" cy="0" r="1" gradientUnits="userSpaceOnUse" gradientTransform="translate(-100.041 20.2728) rotate(28.1237) scale(407.654 451.959)">
<stop stop-color="#F03D3D" stop-opacity="0.35"/>
<stop offset="0.83748" stop-color="#EF4F1D" stop-opacity="0"/>
</radialGradient>
<radialGradient id="paint4_radial" cx="0" cy="0" r="1" gradientUnits="userSpaceOnUse" gradientTransform="translate(558.921 387) rotate(-153.287) scale(175.503 125.101)">
<stop stop-color="#3DB0F0"/>
<stop offset="0.782422" stop-color="#1DA3EF" stop-opacity="0"/>
</radialGradient>
</defs>
</svg>
