<svg width="539" height="374" viewBox="0 0 539 374" fill="none" xmlns="http://www.w3.org/2000/svg">
<path fill-rule="evenodd" clip-rule="evenodd" d="M133.15 317.031C133.643 318.239 134.259 319.386 134.982 320.459C140.244 323.57 145.6 326.539 151.046 329.358C151.377 329.373 151.71 329.381 152.044 329.381L155.495 329.381C147.87 325.551 140.417 321.43 133.15 317.031ZM167.17 329.381C154.931 323.729 143.11 317.325 131.767 310.229C131.758 309.622 131.778 309.007 131.829 308.386C131.842 308.234 131.854 308.082 131.867 307.93C144.662 315.997 158.073 323.177 172.014 329.381L167.17 329.381ZM434.873 329.381C445.199 324.612 455.228 319.308 464.923 313.505C465.081 312.683 465.185 311.842 465.231 310.985C453.938 317.82 442.185 323.971 430.029 329.381L434.873 329.381ZM446.684 329.313C451.629 326.826 456.501 324.217 461.297 321.49C457.902 325.879 452.628 328.835 446.684 329.313ZM417.36 329.381C433.967 322.72 449.87 314.674 464.926 305.388C464.853 304.641 464.777 303.905 464.697 303.177C448.071 313.504 430.398 322.303 411.873 329.381L417.36 329.381ZM397.173 329.381C420.87 321.536 443.282 310.871 464.012 297.783C463.906 297.053 463.797 296.333 463.683 295.624C441.162 309.934 416.628 321.359 390.602 329.381L397.173 329.381ZM206.468 327.801C206.466 328.325 206.464 328.852 206.464 329.381L204.87 329.381C179.424 320.957 155.459 309.281 133.468 294.845C133.589 294.118 133.714 293.403 133.844 292.698C156.166 307.442 180.549 319.318 206.468 327.801ZM231.004 329.487C228.047 328.776 225.106 328.022 222.184 327.224C222.188 326.529 222.194 325.839 222.203 325.155C228.11 326.779 234.092 328.225 240.141 329.487L231.004 329.487ZM374.587 328.611C373.407 328.91 372.224 329.202 371.039 329.487L361.901 329.487C366.161 328.599 370.386 327.619 374.576 326.55C374.582 327.232 374.585 327.919 374.587 328.611ZM390.52 324.098C416.255 316.025 440.489 304.563 462.701 290.234C462.555 289.526 462.405 288.829 462.25 288.143C440.177 302.462 416.08 313.926 390.483 322.012C390.498 322.703 390.51 323.398 390.52 324.098ZM390.335 316.879C415.549 308.779 439.268 297.341 460.97 283.086C460.777 282.405 460.579 281.737 460.376 281.082C438.838 295.293 415.29 306.707 390.251 314.804C390.282 315.491 390.31 316.183 390.335 316.879ZM389.98 309.701C414.532 301.635 437.611 290.321 458.709 276.266C458.46 275.62 458.204 274.989 457.943 274.372C437.041 288.341 414.173 299.598 389.842 307.64C389.89 308.322 389.936 309.009 389.98 309.701ZM374.143 312.326C374.18 313.001 374.215 313.681 374.247 314.368C350.882 320.567 326.337 323.871 301.021 323.871C273.818 323.871 247.505 320.057 222.589 312.934C222.625 312.245 222.664 311.562 222.705 310.886C247.575 318.039 273.851 321.871 301.021 321.871C326.308 321.871 350.819 318.552 374.143 312.326ZM389.429 302.576C413.144 294.622 435.432 283.556 455.807 269.863C455.488 269.263 455.163 268.678 454.831 268.109C435.148 281.354 413.665 292.129 390.824 299.989L389.42 302.482C389.423 302.513 389.426 302.545 389.429 302.576ZM373.652 305.274C373.709 305.944 373.763 306.62 373.815 307.303C350.614 313.585 326.209 316.936 301.021 316.936C273.958 316.936 247.797 313.067 223.064 305.851C223.12 305.167 223.179 304.489 223.241 303.818C247.909 311.054 274.012 314.936 301.021 314.936C326.159 314.936 350.511 311.574 373.652 305.274ZM394.616 293.257C415.026 285.739 434.28 275.833 452.041 263.877C451.636 263.334 451.223 262.809 450.802 262.3C433.851 273.697 415.53 283.215 396.139 290.553L394.616 293.257ZM372.924 298.143C373.004 298.806 373.081 299.477 373.155 300.155C350.189 306.486 326 309.868 301.021 309.868C274.182 309.868 248.254 305.963 223.776 298.691C223.855 298.012 223.938 297.341 224.024 296.677C248.416 303.958 274.262 307.868 301.021 307.868C325.925 307.868 350.038 304.481 372.924 298.143ZM400.26 283.635C416.872 276.887 432.64 268.496 447.364 258.663C446.852 258.19 446.33 257.736 445.801 257.301C432.058 266.438 417.403 274.31 402.001 280.753L400.26 283.635ZM371.945 291.215C372.052 291.87 372.156 292.534 372.257 293.205C349.597 299.544 325.705 302.934 301.021 302.934C274.496 302.934 248.886 299.02 224.735 291.737C224.842 291.066 224.953 290.403 225.067 289.748C249.106 297.023 274.607 300.934 301.021 300.934C325.601 300.934 349.389 297.547 371.945 291.215ZM406.406 273.46C418.629 267.955 430.345 261.522 441.462 254.251C440.814 253.863 440.155 253.497 439.487 253.15C429.529 259.605 419.092 265.383 408.242 270.421L406.406 273.46ZM370.654 284.372C370.793 285.018 370.929 285.672 371.062 286.336C348.796 292.631 325.302 295.999 301.021 295.999C274.924 295.999 249.735 292.108 226.003 284.874C226.143 284.211 226.287 283.558 226.435 282.914C250.026 290.121 275.071 293.999 301.021 293.999C325.163 293.999 348.521 290.643 370.654 284.372ZM412.914 262.685C420.147 259.058 427.18 255.091 433.992 250.804C433.168 250.518 432.331 250.255 431.483 250.012C426.081 253.361 420.541 256.508 414.873 259.442L412.914 262.685ZM368.984 277.636C369.163 278.269 369.338 278.913 369.509 279.566C347.745 285.753 324.77 289.065 301.021 289.065C275.487 289.065 250.847 285.236 227.644 278.122C227.825 277.471 228.009 276.83 228.198 276.199C251.225 283.263 275.679 287.065 301.021 287.065C324.588 287.065 347.387 283.777 368.984 277.636ZM420.037 250.892C421.459 250.091 422.872 249.276 424.277 248.448C423.436 248.315 422.587 248.196 421.73 248.09L420.037 250.892ZM229.79 271.385C251.294 277.971 274.068 281.653 297.654 281.974L296.438 279.954C273.535 279.527 251.413 275.903 230.501 269.511C230.259 270.124 230.022 270.749 229.79 271.385ZM366.798 270.907C367.028 271.525 367.253 272.154 367.473 272.795C346.353 278.789 324.062 281.997 301.021 281.997C300.904 281.997 300.786 281.997 300.669 281.996L301.873 279.995C324.375 279.917 346.15 276.754 366.798 270.907ZM232.486 264.955C251.861 270.827 272.29 274.273 293.421 274.942L292.19 272.899C271.819 272.143 252.113 268.782 233.396 263.141C233.087 263.732 232.783 264.337 232.486 264.955ZM364.045 264.476C364.339 265.074 364.628 265.686 364.911 266.311C345.768 271.683 325.641 274.7 304.861 275.031L306.079 273.009C326.123 272.583 345.546 269.638 364.045 264.476ZM235.951 258.753C252.94 263.777 270.752 266.885 289.136 267.825L287.89 265.754C270.364 264.755 253.371 261.768 237.132 257.015C236.732 257.578 236.338 258.157 235.951 258.753ZM360.489 258.26C360.87 258.833 361.245 259.422 361.613 260.027C344.802 264.627 327.219 267.36 309.102 267.988L310.334 265.94C327.62 265.243 344.408 262.613 360.489 258.26ZM418.8 227.429C412.577 231.328 406.147 234.928 399.53 238.208C398.9 238.262 398.267 238.29 397.63 238.29C396.773 238.29 395.922 238.24 395.078 238.142C404.699 233.588 413.936 228.357 422.73 222.51C421.485 224.268 420.172 225.914 418.8 227.429ZM202.293 238.099C192.056 233.01 182.268 227.156 173.003 220.609C172.098 219.222 171.234 217.773 170.413 216.272C181.374 224.365 193.113 231.465 205.497 237.44C204.442 237.735 203.374 237.956 202.293 238.099ZM240.488 252.844C254.727 256.868 269.546 259.508 284.792 260.609L283.527 258.508C269.282 257.388 255.417 254.911 242.063 251.208C241.529 251.733 241.004 252.278 240.488 252.844ZM246.791 247.229C257.649 250.05 268.841 252.044 280.296 253.139L279.009 251.002C268.784 249.952 258.774 248.18 249.03 245.736C248.271 246.206 247.524 246.703 246.791 247.229ZM255.934 242.293C262.448 243.732 269.076 244.865 275.804 245.678L274.492 243.499C269.458 242.852 264.48 242.023 259.567 241.02C258.333 241.401 257.121 241.824 255.934 242.293ZM219.584 228.476C219.079 228.999 218.567 229.504 218.048 229.991C197.593 221.088 178.846 208.994 162.438 194.337C162.211 193.257 162.004 192.17 161.817 191.079C178.722 206.57 198.22 219.277 219.584 228.476ZM323.559 243.972C328.821 243.4 334.023 242.63 339.159 241.669C340.329 242.082 341.477 242.536 342.603 243.036C335.934 244.388 329.15 245.421 322.266 246.119L323.559 243.972ZM319.106 251.368L317.837 253.477C329.262 252.594 340.438 250.817 351.293 248.217C350.595 247.672 349.885 247.154 349.162 246.663C339.384 248.922 329.348 250.507 319.106 251.368ZM385.338 234.789C386.086 235.224 386.844 235.621 387.611 235.98C402.233 229.54 416.001 221.52 428.7 212.134C429.266 210.922 429.804 209.682 430.313 208.42C416.546 218.948 401.456 227.835 385.338 234.789ZM433.249 199.79C433.556 198.692 433.843 197.583 434.109 196.466C417.716 210.342 399.127 221.704 378.936 229.954C379.483 230.468 380.037 230.961 380.599 231.433C399.759 223.498 417.477 212.782 433.249 199.79ZM435.588 188.625C418.016 204.447 397.641 217.217 375.299 226.099C374.853 225.569 374.413 225.025 373.981 224.469C397.058 215.379 418.028 202.105 435.958 185.582C435.853 186.599 435.73 187.613 435.588 188.625ZM160.87 183.401C178.697 200.717 199.722 214.759 222.975 224.556C223.394 224.018 223.806 223.467 224.211 222.905C200.322 212.911 178.795 198.396 160.698 180.43C160.737 181.42 160.794 182.411 160.87 183.401ZM160.744 173.435C179.289 192.793 201.802 208.32 226.975 218.709C227.321 218.136 227.659 217.554 227.991 216.963C202.407 206.448 179.591 190.574 160.942 170.738C160.859 171.624 160.793 172.523 160.744 173.435ZM161.88 164.273C180.623 185.092 203.971 201.682 230.321 212.44C230.604 211.839 230.881 211.231 231.151 210.618C204.604 199.793 181.134 182.986 162.415 161.87C162.222 162.658 162.043 163.459 161.88 164.273ZM435.521 166.352C435.657 167.179 435.777 168.019 435.881 168.872C416.882 188.609 393.592 204.186 367.511 214.099C367.212 213.504 366.919 212.902 366.634 212.293C393 202.299 416.491 186.458 435.521 166.352ZM164.108 156.303C182.641 177.929 206.208 195.113 232.994 206.039C233.223 205.414 233.446 204.785 233.662 204.151C206.876 193.209 183.349 175.937 164.939 154.193C164.648 154.883 164.371 155.586 164.108 156.303ZM433.58 158.232C433.816 158.966 434.038 159.714 434.247 160.475C415.28 181.279 391.506 197.624 364.682 207.754C364.438 207.135 364.202 206.512 363.973 205.883C390.884 195.721 414.691 179.233 433.58 158.232ZM167.324 149.353C185.33 171.16 208.568 188.488 235.117 199.413C235.295 198.765 235.466 198.114 235.63 197.46C209.271 186.565 186.225 169.281 168.421 147.538C168.043 148.129 167.677 148.734 167.324 149.353ZM430.637 151.085C430.965 151.724 431.28 152.378 431.583 153.045C413.002 174.315 389.308 191.004 362.418 201.194C362.227 200.554 362.043 199.911 361.866 199.264C388.652 189.083 412.224 172.376 430.637 151.085ZM171.436 143.424C188.654 164.781 211.044 181.795 236.704 192.561C236.83 191.889 236.949 191.215 237.06 190.54C211.777 179.849 189.726 163.013 172.78 141.904C172.322 142.395 171.873 142.902 171.436 143.424ZM426.78 144.922C427.192 145.466 427.593 146.025 427.983 146.598C410.077 167.722 386.994 184.318 360.694 194.428C360.554 193.766 360.421 193.102 360.297 192.437C386.307 182.376 409.117 165.888 426.78 144.922ZM176.495 138.435C192.664 158.674 213.664 174.885 237.748 185.321C237.818 184.62 237.879 183.919 237.931 183.218C214.418 172.911 193.909 157.018 178.084 137.219C177.545 137.608 177.015 138.013 176.495 138.435ZM421.965 139.663C422.459 140.108 422.943 140.569 423.417 141.045C406.46 161.379 384.531 177.422 359.498 187.306C359.413 186.62 359.336 185.933 359.268 185.245C383.819 175.452 405.323 159.653 421.965 139.663ZM182.311 134.602C197.19 153.071 216.29 167.995 238.147 177.91C238.148 177.737 238.148 177.563 238.148 177.39C238.148 176.823 238.142 176.26 238.129 175.702C217.051 165.982 198.605 151.528 184.155 133.702C183.532 133.984 182.917 134.284 182.311 134.602ZM416.378 135.535C416.954 135.879 417.521 136.24 418.079 136.618C402.308 155.526 382.041 170.554 358.921 180.06C358.897 179.344 358.882 178.628 358.877 177.913C381.316 168.551 401 153.907 416.378 135.535ZM189.064 131.906C202.313 147.869 218.911 160.952 237.781 170.079C237.698 169.279 237.601 168.489 237.492 167.711C219.649 158.881 203.908 146.449 191.217 131.364C190.492 131.523 189.774 131.703 189.064 131.906ZM409.857 132.503C410.527 132.735 411.189 132.986 411.843 133.257C397.559 150.05 379.526 163.556 359.038 172.479C359.09 171.713 359.154 170.956 359.23 170.209C378.808 161.505 396.075 148.545 409.857 132.503ZM197.037 130.561C208.092 143.118 221.385 153.656 236.293 161.552C236.064 160.642 235.815 159.751 235.546 158.878C222.029 151.474 209.901 141.848 199.654 130.492C199.567 130.491 199.481 130.491 199.394 130.491C198.602 130.491 197.816 130.514 197.037 130.561ZM402.153 130.752C402.951 130.845 403.741 130.963 404.524 131.106C392.178 144.982 377.083 156.36 360.095 164.383C360.262 163.542 360.445 162.715 360.644 161.902C376.419 154.229 390.495 143.607 402.153 130.752ZM207.407 131.328C214.905 138.937 223.324 145.636 232.482 151.245C231.827 149.954 231.121 148.719 230.368 147.541C223.556 143.095 217.19 138.024 211.349 132.41C210.063 131.977 208.748 131.616 207.407 131.328ZM392.282 130.858C393.307 130.715 394.344 130.614 395.392 130.554C385.91 140.335 374.921 148.647 362.799 155.115C363.207 154.086 363.644 153.087 364.11 152.119C374.461 146.329 383.934 139.159 392.282 130.858ZM255.176 160.156C255.181 160.873 255.196 161.591 255.22 162.309C269.481 167.612 284.913 170.51 301.021 170.51C315.132 170.51 328.724 168.286 341.465 164.17C341.503 163.459 341.532 162.747 341.553 162.036C328.804 166.237 315.178 168.51 301.021 168.51C284.879 168.51 269.426 165.555 255.176 160.156ZM341.551 156.829C328.846 161.202 315.211 163.576 301.021 163.576C284.878 163.576 269.452 160.503 255.297 154.91C255.336 154.204 255.384 153.506 255.441 152.814C269.53 158.466 284.912 161.576 301.021 161.576C315.191 161.576 328.799 159.17 341.458 154.744C341.498 155.432 341.529 156.127 341.551 156.829ZM370.662 142.289C373.768 138.865 377.377 136.151 381.351 134.194C377.94 137.077 374.372 139.781 370.662 142.289ZM256.039 147.727C269.895 153.471 285.088 156.641 301.021 156.641C315.057 156.641 328.518 154.181 340.997 149.669C340.911 148.987 340.817 148.311 340.713 147.644C328.335 152.171 314.967 154.641 301.021 154.641C285.197 154.641 270.115 151.46 256.381 145.703C256.258 146.37 256.144 147.045 256.039 147.727ZM257.484 140.809C270.846 146.536 285.563 149.706 301.021 149.706C314.651 149.706 327.705 147.241 339.762 142.733C339.608 142.073 339.445 141.422 339.272 140.78C327.375 145.257 314.484 147.706 301.021 147.706C285.753 147.706 271.221 144.556 258.039 138.87C257.844 139.508 257.66 140.154 257.484 140.809ZM259.733 134.08C272.383 139.586 286.346 142.639 301.021 142.639C313.954 142.639 326.333 140.268 337.747 135.937C337.516 135.305 337.276 134.683 337.027 134.071C325.836 138.315 313.7 140.639 301.021 140.639C286.625 140.639 272.929 137.643 260.522 132.241C260.25 132.844 259.987 133.457 259.733 134.08ZM262.776 127.839C274.505 132.9 287.436 135.704 301.021 135.704C312.959 135.704 324.392 133.539 334.947 129.58C334.631 128.978 334.306 128.388 333.971 127.809C323.711 131.621 312.609 133.704 301.021 133.704C287.815 133.704 275.241 130.998 263.823 126.111C263.464 126.676 263.115 127.251 262.776 127.839ZM266.775 121.999C277.327 126.362 288.893 128.769 301.021 128.769C311.609 128.769 321.768 126.935 331.199 123.566C330.779 122.996 330.349 122.441 329.909 121.899C320.864 125.054 311.143 126.769 301.021 126.769C289.392 126.769 278.292 124.506 268.138 120.395C267.673 120.915 267.219 121.45 266.775 121.999ZM271.997 116.601C281.028 119.985 290.809 121.835 301.021 121.835C309.812 121.835 318.283 120.464 326.231 117.924C325.665 117.387 325.086 116.869 324.496 116.37C317.067 118.623 309.186 119.835 301.021 119.835C291.472 119.835 282.31 118.177 273.807 115.134C273.192 115.603 272.588 116.093 271.997 116.601ZM279.318 111.609C286.193 113.663 293.478 114.767 301.021 114.767C307.278 114.767 313.358 114.008 319.173 112.576C318.306 112.061 317.42 111.58 316.518 111.134C311.521 112.204 306.337 112.767 301.021 112.767C294.462 112.767 288.102 111.91 282.049 110.301C281.122 110.701 280.211 111.138 279.318 111.609ZM292.852 107.352C295.531 107.669 298.257 107.832 301.021 107.832C302.668 107.832 304.3 107.774 305.917 107.661C303.47 107.222 300.953 107 298.382 107C296.509 107 294.663 107.118 292.852 107.352ZM341.007 169.627C328.361 173.496 314.934 175.578 301.021 175.578C285.086 175.578 269.788 172.847 255.57 167.828C255.639 168.562 255.717 169.296 255.804 170.028C269.974 174.921 285.188 177.578 301.021 177.578C314.824 177.578 328.155 175.559 340.735 171.8C340.834 171.077 340.925 170.353 341.007 169.627ZM339.834 177.199C327.489 180.661 314.472 182.513 301.021 182.513C285.522 182.513 270.596 180.054 256.614 175.506C256.747 176.254 256.889 177 257.039 177.743C270.915 182.141 285.691 184.513 301.021 184.513C314.296 184.513 327.155 182.734 339.374 179.402C339.536 178.671 339.689 177.936 339.834 177.199ZM337.997 184.867C326.168 187.858 313.78 189.447 301.021 189.447C286.194 189.447 271.869 187.301 258.338 183.303C258.54 184.063 258.75 184.819 258.969 185.57C272.326 189.397 286.434 191.447 301.021 191.447C313.536 191.447 325.699 189.938 337.337 187.093C337.566 186.355 337.786 185.613 337.997 184.867ZM335.436 192.606C324.36 195.078 312.843 196.382 301.021 196.382C287.121 196.382 273.641 194.579 260.804 191.194C261.083 191.964 261.371 192.727 261.668 193.484C274.255 196.682 287.44 198.382 301.021 198.382C312.522 198.382 323.739 197.163 334.548 194.847C334.853 194.107 335.149 193.36 335.436 192.606ZM331.956 200.543C321.937 202.451 311.596 203.45 301.021 203.45C288.364 203.45 276.04 202.019 264.204 199.31C264.579 200.09 264.963 200.86 265.358 201.618C276.847 204.128 288.78 205.45 301.021 205.45C311.18 205.45 321.126 204.539 330.782 202.795C331.183 202.056 331.574 201.305 331.956 200.543ZM327.446 208.359C318.833 209.692 310.008 210.384 301.021 210.384C289.954 210.384 279.132 209.335 268.649 207.33C269.154 208.121 269.67 208.895 270.198 209.651C280.201 211.447 290.502 212.384 301.021 212.384C309.463 212.384 317.763 211.781 325.882 210.614C326.414 209.88 326.936 209.128 327.446 208.359ZM321.304 216.177C314.647 216.931 307.879 217.319 301.021 217.319C292.093 217.319 283.317 216.662 274.741 215.395C275.473 216.207 276.221 216.986 276.984 217.73C284.847 218.778 292.871 219.319 301.021 219.319C307.106 219.319 313.119 219.017 319.049 218.429C319.815 217.713 320.567 216.962 321.304 216.177ZM311.588 223.957C308.091 224.154 304.568 224.253 301.021 224.253C295.426 224.253 289.888 224.005 284.419 223.519C286.012 224.467 287.646 225.264 289.316 225.893C293.187 226.132 297.09 226.253 301.021 226.253C302.915 226.253 304.803 226.225 306.683 226.169C308.354 225.594 309.991 224.852 311.588 223.957ZM369.974 218.585C395.062 208.941 417.617 194.189 436.364 175.603C436.378 176.193 436.385 176.789 436.385 177.39C436.385 177.724 436.383 178.057 436.378 178.391C417.806 196.44 395.637 210.807 371.048 220.315C370.683 219.748 370.325 219.171 369.974 218.585ZM164.675 202.785C179.467 215.119 195.956 225.486 213.741 233.483C213.078 233.941 212.406 234.369 211.726 234.766C195.235 227.228 179.863 217.668 165.927 206.401C165.484 205.213 165.066 204.007 164.675 202.785ZM355.793 252.324C356.302 252.864 356.802 253.423 357.293 254.002C343.16 257.693 328.479 260.026 313.396 260.854L314.646 258.778C328.762 257.916 342.52 255.723 355.793 252.324ZM169.128 249.118C172.603 251.305 176.136 253.408 179.724 255.424L181.797 258.855C176.555 256.006 171.427 252.974 166.42 249.769C167.311 249.531 168.214 249.315 169.128 249.118ZM160.468 251.782C159.742 252.086 159.026 252.41 158.32 252.755C167.983 259.221 178.108 265.049 188.636 270.179L186.713 266.995C177.642 262.436 168.88 257.352 160.468 251.782ZM193.233 277.79C179.33 271.502 166.074 264.035 153.592 255.516C153.014 255.915 152.445 256.333 151.885 256.771C165.415 266.059 179.855 274.118 195.043 280.787L193.233 277.79ZM199.395 287.992C181.224 280.565 164.048 271.206 148.121 260.171C147.66 260.65 147.207 261.147 146.762 261.662C163.553 273.321 181.727 283.13 200.988 290.791L200.098 289.156L199.395 287.992ZM204.725 297.662C182.947 289.549 162.47 278.762 143.694 265.702C143.328 266.249 142.97 266.811 142.619 267.391C162.13 280.953 183.462 292.079 206.175 300.327L204.725 297.662ZM207.306 305.972C183.312 297.547 160.799 285.978 140.259 271.76C139.97 272.36 139.687 272.975 139.411 273.605C160.164 287.934 182.912 299.579 207.154 308.039C207.202 307.344 207.253 306.656 207.306 305.972ZM206.85 313.157C182.062 304.641 158.793 292.858 137.558 278.32C137.332 278.964 137.112 279.62 136.897 280.291C158.31 294.89 181.769 306.712 206.754 315.238C206.783 314.539 206.815 313.846 206.85 313.157ZM222.304 320.061C238.7 324.645 255.679 327.833 273.105 329.487L328.938 329.487C344.514 328.008 359.732 325.305 374.497 321.474C374.481 320.784 374.463 320.1 374.442 319.421C350.994 325.545 326.389 328.805 301.021 328.805C273.76 328.805 247.379 325.04 222.368 318.002C222.344 318.682 222.323 319.369 222.304 320.061ZM206.578 320.39C206.56 321.083 206.544 321.781 206.531 322.483C180.959 313.961 156.926 302.075 134.956 287.35C135.12 286.648 135.289 285.958 135.463 285.281C157.282 299.982 181.162 311.86 206.578 320.39ZM132.679 300.221C150.653 311.832 169.901 321.637 190.169 329.381L184.683 329.381C166.335 322.022 148.847 312.973 132.411 302.427C132.497 301.682 132.586 300.946 132.679 300.221Z" fill="#4CD964"/>
<path d="M341.588 159.553C341.588 192.78 322.239 227.528 298.37 227.528C274.502 227.528 255.153 192.78 255.153 159.553C255.153 126.327 274.502 107.205 298.37 107.205C322.239 107.205 341.588 126.327 341.588 159.553Z" fill="url(#paint0_linear)"/>
<path d="M271.496 238.467C242.661 242.059 222.15 258.048 222.15 329.205L374.591 329.205C374.591 259.253 354.767 242.617 326.7 238.66L299.156 284.306L271.496 238.467Z" fill="url(#paint1_linear)"/>
<path d="M199.363 238.207C220.77 238.207 238.125 207.144 238.125 177.441C238.125 147.739 220.77 130.645 199.363 130.645C177.955 130.645 160.6 147.739 160.6 177.441C160.6 207.144 177.955 238.207 199.363 238.207Z" fill="url(#paint2_linear)"/>
<path d="M397.637 238.207C376.23 238.207 358.875 207.144 358.875 177.441C358.875 147.739 376.23 130.645 397.637 130.645C419.045 130.645 436.4 147.739 436.4 177.441C436.4 207.144 419.045 238.207 397.637 238.207Z" fill="url(#paint3_linear)"/>
<path d="M396.933 288.962L421.742 247.986C444.958 250.868 462.158 262.681 465.434 311.086C466.105 321.005 457.941 329.1 448 329.1L390.565 329.1C390.563 319.315 390.185 310.391 389.426 302.259L396.933 288.962Z" fill="url(#paint4_linear)"/>
<path d="M200.067 288.962L175.258 247.986C152.042 250.868 134.842 262.681 131.566 311.086C130.895 321.005 139.059 329.1 149 329.1L206.435 329.1C206.437 319.476 206.803 310.685 207.537 302.662L200.067 288.962Z" fill="url(#paint5_linear)"/>
<circle cx="180.5" cy="64.5" r="21.5" fill="url(#paint6_linear)"/>
<circle cx="465.5" cy="73.5" r="64.5" fill="url(#paint7_linear)"/>
<path fill-rule="evenodd" clip-rule="evenodd" d="M451.679 144.068C484.2 129.669 513.334 109.016 537.555 83.6327C537.725 82.5148 537.87 81.3907 537.988 80.2613C512.966 107.025 482.502 128.637 448.36 143.334C449.459 143.604 450.565 143.849 451.679 144.068ZM472.44 145.103C493.937 133.811 513.779 119.797 531.511 103.52C530.709 105.232 529.84 106.912 528.909 108.555C513.395 122.268 496.355 134.293 478.076 144.344C476.195 144.673 474.315 144.925 472.44 145.103ZM434.554 138.42C474.894 123.03 510.367 97.7839 538.028 65.6253C537.939 64.7243 537.833 63.8222 537.709 62.9194C509.7 95.9592 473.439 121.782 432.108 137.204C432.916 137.624 433.731 138.03 434.554 138.42ZM421.651 130.58C466.736 115.316 505.949 87.3171 535.006 50.8645C534.766 50.1015 534.515 49.3451 534.252 48.5954C505.088 85.586 465.43 113.918 419.769 129.102C420.388 129.605 421.016 130.098 421.651 130.58ZM411.698 121.451C459.342 106.795 500.498 77.3271 529.79 38.4214C529.445 37.7752 529.092 37.1356 528.729 36.5028C499.479 75.6649 458.144 105.273 410.25 119.801C410.725 120.359 411.208 120.909 411.698 121.451ZM403.992 111.249C452.4 97.4023 494.041 67.5251 522.804 27.7275C522.376 27.1843 521.941 26.6478 521.498 26.1183C492.881 65.9196 451.291 95.7681 402.918 109.475C403.268 110.072 403.626 110.664 403.992 111.249ZM398.506 100.586C446.08 87.5526 486.916 58.2174 514.633 18.9592C514.137 18.5076 513.634 18.0631 513.126 17.6259C485.629 56.6603 445.049 85.8156 397.762 98.7157C398.002 99.3442 398.25 99.9677 398.506 100.586ZM394.897 89.3941C440.194 77.112 479.057 49.1866 505.327 11.7757C504.767 11.4116 504.203 11.0552 503.633 10.7067C477.647 47.6759 439.233 75.2768 394.462 87.4391C394.598 88.0908 394.743 88.7426 394.897 89.3941ZM393.114 77.7009C434.725 66.0929 470.474 40.4283 494.921 6.14727C494.296 5.87201 493.667 5.60543 493.034 5.34764C468.939 38.9644 433.838 64.157 393 75.6553C393.028 76.3363 393.066 77.0182 393.114 77.7009ZM393.327 65.1727C429.63 54.2328 460.951 31.7984 483.059 2.10029C482.352 1.92548 481.642 1.76115 480.929 1.60743C459.276 30.3902 428.833 52.1845 393.587 63.0027C393.49 63.7237 393.403 64.4471 393.327 65.1727ZM395.962 51.9798C425.226 41.8943 450.717 23.7066 469.755 0.0971373C468.924 0.0504015 468.091 0.0179604 467.255 0C448.866 22.3802 424.555 39.7104 396.718 49.5958C396.452 50.3855 396.2 51.1803 395.962 51.9798ZM402.372 36.9206C421.82 28.583 439.167 16.2837 453.398 1.03794C452.266 1.23286 451.134 1.45533 450.003 1.70579C436.973 15.1528 421.434 26.1546 404.142 33.9567C403.528 34.9307 402.938 35.9189 402.372 36.9206Z" fill="#5AC8FA"/>
<path fill-rule="evenodd" clip-rule="evenodd" d="M10.099 368.667C23.4572 361.189 35.9629 352.37 47.4336 342.392C47.2133 341.707 46.9645 341.038 46.689 340.387C34.9789 350.644 22.1704 359.678 8.46317 367.289C8.98843 367.773 9.53436 368.233 10.099 368.667ZM21.7002 373.451C30.9121 367.879 39.7049 361.684 48.0203 354.924C47.7617 356.081 47.4179 357.213 46.9942 358.312C40.0493 363.815 32.7845 368.932 25.2323 373.63C24.0421 373.659 22.862 373.597 21.7002 373.451ZM2.77604 359.295C16.5591 351.736 29.4024 342.677 41.0861 332.337C40.5953 331.875 40.0859 331.434 39.5596 331.017C28.1071 341.126 15.5336 349.995 2.04932 357.412C2.26679 358.055 2.50951 358.683 2.77604 359.295ZM0.949707 346.845C11.2471 340.898 20.9604 334.052 29.9825 326.416C29.1331 326.222 28.2702 326.074 27.3974 325.974C19.2641 332.74 10.5757 338.862 1.41061 344.26C1.21037 345.109 1.05605 345.972 0.949707 346.845Z" fill="#5AC8FA"/>
<defs>
<linearGradient id="paint0_linear" x1="21.4954" y1="252.798" x2="459.616" y2="307.581" gradientUnits="userSpaceOnUse">
<stop stop-color="#14C7FF"/>
<stop offset="1" stop-color="#2BCCFF" stop-opacity="0"/>
</linearGradient>
<linearGradient id="paint1_linear" x1="21.4954" y1="252.798" x2="459.616" y2="307.581" gradientUnits="userSpaceOnUse">
<stop stop-color="#14C7FF"/>
<stop offset="1" stop-color="#2BCCFF" stop-opacity="0"/>
</linearGradient>
<linearGradient id="paint2_linear" x1="21.4954" y1="252.798" x2="459.616" y2="307.581" gradientUnits="userSpaceOnUse">
<stop stop-color="#14C7FF"/>
<stop offset="1" stop-color="#2BCCFF" stop-opacity="0"/>
</linearGradient>
<linearGradient id="paint3_linear" x1="21.4954" y1="252.798" x2="459.616" y2="307.581" gradientUnits="userSpaceOnUse">
<stop stop-color="#14C7FF"/>
<stop offset="1" stop-color="#2BCCFF" stop-opacity="0"/>
</linearGradient>
<linearGradient id="paint4_linear" x1="21.4954" y1="252.798" x2="459.616" y2="307.581" gradientUnits="userSpaceOnUse">
<stop stop-color="#14C7FF"/>
<stop offset="1" stop-color="#2BCCFF" stop-opacity="0"/>
</linearGradient>
<linearGradient id="paint5_linear" x1="21.4954" y1="252.798" x2="459.616" y2="307.581" gradientUnits="userSpaceOnUse">
<stop stop-color="#14C7FF"/>
<stop offset="1" stop-color="#2BCCFF" stop-opacity="0"/>
</linearGradient>
<linearGradient id="paint6_linear" x1="300.194" y1="132.851" x2="117.925" y2="43" gradientUnits="userSpaceOnUse">
<stop offset="0.380595" stop-color="#3DF0B0"/>
<stop offset="0.779884" stop-color="#1DEFA3" stop-opacity="0"/>
</linearGradient>
<linearGradient id="paint7_linear" x1="489.767" y1="224.213" x2="307.327" y2="-32.5139" gradientUnits="userSpaceOnUse">
<stop stop-color="#3DB0F0"/>
<stop offset="0.706891" stop-color="#1DA3EF" stop-opacity="0"/>
</linearGradient>
</defs>
</svg>
